<svg xmlns="http://www.w3.org/2000/svg" width="79" height="20" fill="none"><g fill="#000" clip-path="url(#a)"><path d="m25.5 15.67.98-2.27a6.5 6.5 0 0 0 3.85 1.2c1.02 0 1.67-.4 1.67-1-.02-1.66-6.13-.36-6.18-4.54-.01-2.13 1.88-3.77 4.55-3.77a7 7 0 0 1 4.32 1.3l-.92 2.3a6.9 6.9 0 0 0-3.55-1.13c-.84 0-1.39.4-1.39.9.02 1.64 6.17.74 6.24 4.74 0 2.17-1.85 3.7-4.5 3.7a8.62 8.62 0 0 1-5.06-1.43Zm37.47-3.09a2.82 2.82 0 1 1 0-2.77l2.7-1.5a5.9 5.9 0 1 0 0 5.76l-2.7-1.49ZM36.42.4h3.37v16.5h-3.37V.38Zm30.57 0v16.5h3.37v-4.95l4 4.94h4.31l-5.08-5.87 4.7-5.48h-4.12l-3.81 4.55V.39h-3.37ZM49.8 12.61a3.1 3.1 0 0 1-2.63 1.4 2.82 2.82 0 1 1 0-5.63 3.1 3.1 0 0 1 2.63 1.45v2.78Zm0-7.08v1.34c-.56-.93-1.93-1.58-3.36-1.58-2.96 0-5.29 2.62-5.29 5.9 0 3.27 2.33 5.91 5.3 5.91 1.42 0 2.8-.64 3.35-1.57v1.34h3.37V5.53H49.8ZM4.67 12.6a2.08 2.08 0 1 1-2.08-2.08h2.08v2.08Zm1.04 0a2.08 2.08 0 1 1 4.16 0v5.2a2.08 2.08 0 1 1-4.16 0v-5.2ZM7.79 4.25a2.08 2.08 0 1 1 2.08-2.08v2.08H7.79Zm0 1.06a2.08 2.08 0 1 1 0 4.15H2.58a2.08 2.08 0 1 1 0-4.15h5.21ZM16.12 7.39a2.08 2.08 0 1 1 2.08 2.07h-2.08V7.4Zm-1.04 0a2.08 2.08 0 1 1-4.16 0V2.17a2.08 2.08 0 1 1 4.16 0V7.4ZM13 15.72a2.08 2.08 0 1 1-2.08 2.08v-2.08H13Zm0-1.04a2.08 2.08 0 1 1 0-4.16h5.22a2.08 2.08 0 1 1 0 4.16H13Z"></path></g><defs><clipPath id="a"><path fill="#fff" d="M.39 0h78.43v20H.39z"></path></clipPath></defs></svg>