<svg xmlns="http://www.w3.org/2000/svg" width="75" height="18" fill="none"><g clip-path="url(#a)"><path fill="#000" fill-rule="evenodd" d="M73.3 12.46c-.23-.16-.42-.18-.57.13-2.56 5.55-6.88 2.78-6.45 3.02.96-.44 3.48-2.45 3.1-5.25-.23-1.7-1.7-2.46-3.25-2.19-2.72.48-3.7 3.4-3.2 6a5 5 0 0 0 .4 1.17c-3.06 2.5-4.28-2.23-4.42-2.8 0-.03 2.37-2 3.03-6.72.7-4.94-.88-5.84-2.5-5.81-2.98.05-3.78 6.28-2.7 11.47-.09.02-.52.26-1.2.28-.48-1.53-2.57-2.88-3.11-2.36-1.36 1.3.33 3.84 1.53 4.03-.72 4.42-5.2 3.33-4.37-2.2 1.45-2.72 2.57-6.76 2.37-9.19-.07-.86-.71-2.01-2.15-1.96-2.77.11-3.07 6.34-2.75 10.76-.01-.1-.17.54-1.3.86-.27-1.49-2.67-3-3.24-2.27-1.06 1.35.78 3.75 1.64 3.92-.71 4.41-5.2 3.32-4.37-2.22 1.47-2.7 2.58-6.73 2.38-9.17-.07-.86-.7-2.01-2.15-1.96-2.77.11-3.07 6.34-2.75 10.76-.01-.1-.17.56-1.35.88-.04-1.94-2.45-2.82-3.03-2.2-1.03 1.1.24 3.36 1.4 3.9-.7 4.42-5.2 3.33-4.36-2.2 1.46-2.71 2.57-6.75 2.37-9.19-.06-.85-.7-2-2.14-1.95-2.77.11-3 6.65-2.67 11.08-.91 3.91-3.98 8.8-3.58-1 .04-.68.08-.94-.26-1.2-.26-.2-.84-.1-1.15-.1-.39.02-.5.25-.57.6-.2.87-.24 1.73-.27 2.9-.01.55-.06.8-.27 1.55-.22.75-1.41 2.11-2.07 1.89-.92-.32-.62-2.9-.44-4.66.14-1.4-.32-2.03-1.48-2.26-.69-.14-1.1-.11-1.82-.34-.67-.22-.82-1.49-2.26-1.07-.78.24-.28 1.9-.47 3.14-.93 6.07-2.86 6.23-3.75 3.29C13.13 3.93 10.25.03 8.58.03c-1.75 0-3.75 1.2-2.9 8.92-.42-.11-.54-.18-1-.18-2.54 0-4.28 2.06-4.28 4.6 0 2.54 1.74 4.6 4.29 4.6 1.5 0 2.56-.68 3.36-1.73.52.74 1.16 1.75 2.32 1.7 3.47-.13 4.47-7.24 4.6-7.64.36.05.72.17 1.06.22.56.09.61.32.6.88-.16 4.84.73 6.53 2.76 6.53 1.12 0 2.13-1.11 2.82-1.9.52 1.07 1.34 1.87 2.45 1.9 2.68.06 3.71-4.2 3.62-3.65-.08.44.86 3.62 3.63 3.63 3.41.02 4.05-3.74 4.12-4.37 0-.12.02-.1 0 0v.04c1.09-.2 1.65-.78 1.65-.78s.87 5.18 4.09 5.12c3.35-.06 3.98-3.46 4.06-4.12.01-.15.02-.14 0 0v.02c1.3-.47 1.63-.94 1.63-.94s.7 5.07 4.1 5.12c3.03.04 4.15-3.07 4.16-4.37.51 0 1.46-.3 1.43-.32 0 0 1.11 4.43 4.22 4.66 1.45.1 2.55-.82 3.17-1.25 1.46 1.2 6.34 2.7 9.42-2.52.44-.74-.5-1.62-.67-1.74Zm-68.74 3.8c-1.49 0-2.44-1.39-2.44-2.87 0-1.48.88-2.85 2.36-2.85.67 0 1.04.07 1.57.52.1.37.36 1.23.5 1.63.17.52.38.96.59 1.44-.31 1.25-1.29 2.12-2.58 2.12Zm3.62-5.16c-.06-.1-.04-.04-.11-.13-.27-.74-.8-2.4-.86-4.28-.07-2.12.28-4.62 1.33-4.62.7 0 1.46 5.06-.36 9.03Zm20.95-2.2c-.16-1.27-.17-6.9 1.18-6.74.75.3-.48 5.6-1.18 6.73Zm9.87 0c-.17-1.27-.17-6.9 1.17-6.74.75.3-.47 5.6-1.17 6.73Zm9.79.07c-.17-1.26-.18-6.89 1.17-6.73.75.29-.47 5.6-1.17 6.73Zm10.8-7.15c1.23-.13 1.18 5.27-1.3 8.67-.32-1.23-.8-8.24 1.3-8.67Zm5.2 11.61c-.4-2 .62-3.32 1.68-3.46.37-.06.9.18 1 .63.18.84-.02 2.1-2.39 3.68.01 0-.21-.4-.3-.85ZM22.9 7.25a1.53 1.53 0 1 0 0-3.06 1.53 1.53 0 0 0 0 3.06Z" clip-rule="evenodd"></path></g><defs><clipPath id="a"><path fill="#fff" d="M.4 0h73.8v18H.4z"></path></clipPath></defs></svg>