<svg xmlns="http://www.w3.org/2000/svg" width="153" height="20" fill="none"><g clip-path="url(#a)"><path fill="#000" d="M12.22 2.07C12.22.4 10.65 0 9.4 0v.25c.74 0 1.32.25 1.32.82 0 .33-.25.83-1 .83-.57 0-1.8-.33-2.72-.66A8.78 8.78 0 0 0 4.11.5a2.7 2.7 0 0 0-2.8 2.64c0 1.24.9 1.65 1.24 1.82l.08-.17c-.16-.16-.41-.33-.41-.82 0-.33.33-.91 1.16-.91.74 0 1.73.33 3.05.74 1.16.33 2.4.58 3.06.66v2.56L8.25 8.1v.08L9.5 9.26v3.55c-.66.41-1.4.5-2.06.5a4.07 4.07 0 0 1-3.23-1.33l3.39-1.65v-5.7L3.46 6.45C3.79 5.37 4.7 4.63 5.6 4.13l-.09-.25C3.04 4.55.82 6.86.82 9.67a5.8 5.8 0 0 0 5.78 5.78c3.3 0 5.45-2.64 5.45-5.37h-.16a5.53 5.53 0 0 1-2.15 2.56V9.26l1.32-1.08V8.1L9.74 7.02V4.46c1.24 0 2.48-.82 2.48-2.4Zm-7.2 9.09-.98.5a4.9 4.9 0 0 1-.91-3.15c0-.58 0-1.24.16-1.73l1.74-.75v5.13Zm8.77 1.9-1.08.82.17.17.5-.41 1.81 1.65 2.48-1.65-.08-.17-.66.41-.83-.82V7.44l.66-.5 1.4 1.16v5.04c0 3.14-.65 3.64-2.06 4.13v.25c2.32.08 4.47-.66 4.47-4.71V7.36l.74-.58-.17-.17-.66.5-2.06-1.74-2.32 1.74V.33h-.16l-2.9 1.98v.17c.34.16.83.33.83 1.24l-.08 9.34Zm15.12-.91-2.06 1.57-2.07-1.65v-1l3.88-2.64v-.08l-1.98-2.98-4.3 2.32v5.45l-.82.66.16.17.75-.58 2.8 2.06L29 12.48l-.09-.33Zm-4.13-1.4V6.68l.17-.08 1.81 2.9-1.98 1.23ZM44.7 1.31c0-.25-.08-.5-.17-.74h-.16c-.25.66-.58.99-1.4.99-.75 0-1.25-.41-1.58-.74L39 3.55l.17.17.83-.74c.5.4.9.74 2.06.82v6.86l-4.87-8.35c-.42-.66-1-1.57-2.15-1.57-1.32 0-2.48 1.16-2.32 2.98h.25c.08-.5.33-1.08.91-1.08.41 0 .83.42 1.08.83V6.2c-1.5 0-2.48.66-2.48 1.9 0 .66.33 1.65 1.32 1.9v-.17a.75.75 0 0 1-.25-.57c0-.42.33-.75.91-.75h.41v3.47c-1.73 0-3.14 1-3.14 2.65 0 1.57 1.32 2.31 2.81 2.23v-.17c-.9-.08-1.32-.5-1.32-1.07 0-.74.5-1.07 1.16-1.07.66 0 1.24.4 1.65.9l2.4-2.64-.17-.17-.58.67a3.97 3.97 0 0 0-2.48-1.24V3.8l6.62 11.57h.5V3.8a2.53 2.53 0 0 0 2.39-2.48Zm6.03 10.83-2.07 1.57-2.06-1.65v-1l3.88-2.64v-.08L48.5 5.37 44.2 7.7v5.45l-.82.66.16.17.74-.58 2.81 2.06 3.72-2.97-.08-.33Zm-4.13-1.4V6.68l.16-.08 1.82 2.9-1.98 1.23Zm17.6-4.47-.58.41-1.57-1.32-1.81 1.65.74.75v6.2L59 12.73V7.6l.66-.41-1.9-1.82-1.82 1.65.74.75v5.95l-.25.16-1.73-1.24V7.7c0-1.16-.58-1.5-1.24-1.9-.58-.42-.91-.67-.91-1.24 0-.5.5-.75.74-.91v-.17c-.66 0-2.4.66-2.4 2.23 0 .83.42 1.16.83 1.57.42.42.83.75.83 1.49v4.8l-.91.65.17.17.82-.66 1.9 1.65 2.07-1.4 2.31 1.4 4.38-2.56V7.27l1.08-.82-.17-.17Zm15.37-4.54-.82.74L76.93.83 74.2 2.8V.99h-.25l.09 13.39c-.25 0-1-.17-1.57-.33L72.3 2.89c0-.82-.58-1.98-2.07-1.98a2.4 2.4 0 0 0-2.47 2.31H68c.09-.5.33-.9.83-.9.5 0 .9.32.9 1.4v3.22c-1.48.08-2.39.91-2.39 1.99 0 .66.33 1.65 1.32 1.65v-.17c-.33-.16-.4-.41-.4-.58 0-.5.4-.66 1.07-.66h.33v5.13c-1.24.41-1.74 1.32-1.74 2.31 0 1.4 1.08 2.4 2.73 2.4 1.16 0 2.15-.17 3.14-.42.83-.16 1.9-.4 2.4-.4.66 0 .9.32.9.74 0 .57-.24.82-.57.9V20c1.32-.25 2.14-1.07 2.14-2.31s-1.23-1.99-2.56-1.99c-.66 0-2.06.25-3.06.42-1.15.24-2.3.4-2.64.4-.58 0-1.24-.24-1.24-1.07 0-.66.58-1.24 1.98-1.24.75 0 1.66.09 2.57.34.99.24 1.9.5 2.72.5 1.24 0 2.32-.42 2.32-2.16V2.73l.99-.83-.17-.16ZM76.2 6.78c-.25.24-.58.5-1 .5-.41 0-.82-.26-.99-.5V3.14l.83-.58 1.16 1.08v3.14Zm0 2.48a1.58 1.58 0 0 0-1-.42c-.41 0-.82.25-.99.42V7.1c.17.16.58.41 1 .41.4 0 .82-.25.99-.41v2.15Zm0 3.88c0 .66-.42 1.32-1.33 1.32h-.66V9.6c.17-.17.58-.42 1-.42.4 0 .74.25.99.42v3.55ZM87.5 7.27l-2.65-1.9-4.05 2.32v5.37l-.82.66.08.16.66-.5 2.65 2 4.13-2.49V7.27Zm-4.47 5.2V6.54l2.07 1.49v5.86l-2.07-1.4Zm12.32-6.93h-.17c-.24.16-.5.33-.74.33-.33 0-.74-.17-.9-.42h-.17l-1.4 1.57-1.41-1.57-2.48 1.66.08.16.66-.41.83.9v5.22l-1.08.82.17.17.5-.42 1.98 1.66 2.56-1.74-.08-.16-.75.4-.99-.82V7.11c.41.41.91.82 1.49.82 1.16.09 1.82-1.07 1.9-2.4Zm9.92 7.93-2.81 1.9-3.8-5.78 2.72-4.22h.17c.33.33.82.66 1.4.66s1-.33 1.24-.66h.17c-.09 1.65-1.24 2.65-2.07 2.65-.83 0-1.24-.42-1.73-.66l-.25.4 4.13 6.12.83-.5v.1Zm-9.1-.41-1.07.82.17.17.5-.41 1.81 1.65 2.48-1.65-.17-.17-.66.41-.82-.82V.33h-.09l-2.97 1.98v.17c.33.16.83.25.83 1.24v9.34Zm22.81-11C119 .42 117.44 0 116.2 0v.25c.74 0 1.32.25 1.32.82 0 .33-.25.83-1 .83-.57 0-1.81-.33-2.72-.66-1.08-.33-2.07-.66-2.9-.66a2.7 2.7 0 0 0-2.8 2.64c0 1.24.9 1.66 1.24 1.82l.08-.16c-.25-.17-.5-.33-.5-.83 0-.33.33-.9 1.16-.9.74-.01 1.74.32 3.06.73 1.16.33 2.4.58 3.06.67V7.1l-1.24 1.07v.08l1.23 1.08v3.55c-.66.42-1.4.5-2.06.5a4.07 4.07 0 0 1-3.22-1.32l3.38-1.66V4.63l-4.13 1.82a5.53 5.53 0 0 1 2.15-2.4l-.08-.17c-2.48.67-4.71 2.9-4.71 5.7a5.8 5.8 0 0 0 5.78 5.8c3.3 0 5.46-2.65 5.46-5.38h-.17a5.54 5.54 0 0 1-2.15 2.56V9.17l1.33-1.07v-.08l-1.24-1.08V4.46c1.24 0 2.48-.82 2.48-2.4Zm-7.18 9.1-1 .5a4.9 4.9 0 0 1-.9-3.15c0-.58.08-1.24.24-1.73l1.74-.75-.08 5.13Zm10.08-9.92h-.08l-1.66 1.4v.09l1.4 1.57h.17l1.66-1.4V2.8l-1.5-1.57Zm2.48 12.23-.66.41-.83-.82v-5.7l.83-.58-.17-.17-.58.5-1.48-1.74-2.4 1.65.16.25.58-.41.75.9v5.38l-1.08.83.08.16.58-.41 1.82 1.65 2.48-1.65-.08-.25Zm13.8-.08-.58.41-.9-.82V7.36l.82-.67-.17-.16-.66.58-1.9-1.74-2.48 1.74-1.9-1.74-2.31 1.74-1.5-1.74-2.39 1.65.08.25.58-.41.83.9v5.38l-.66.66 1.9 1.57 1.82-1.65-.75-.74V7.36l.75-.5 1.24 1.16v4.96l-.66.66 1.9 1.57 1.81-1.66-.74-.74V7.36l.66-.42 1.32 1.16v4.96l-.57.58 1.9 1.73 2.56-1.73v-.25Zm7.19-1.24-2.07 1.57-2.06-1.65v-1l3.88-2.64v-.08l-1.98-2.98-4.3 2.32v5.62l2.9 2.06 3.71-2.97-.08-.25Zm-4.13-1.4V6.68l.16-.08 1.82 2.9-1.98 1.23Zm11.65-.75-1.57-1.24a4.1 4.1 0 0 0 1.49-2.97v-.5h-.17c-.16.41-.5.83-1.16.83-.66 0-1.07-.33-1.48-.83l-3.72 2.07v2.97l1.4 1.07c-1.4 1.24-1.65 2.07-1.65 2.73 0 .83.41 1.4 1.07 1.66l.09-.17c-.17-.17-.33-.25-.33-.66 0-.25.33-.66.99-.66.82 0 1.32.58 1.57.82l3.55-2.14V10h-.08Zm-.91-2.48a9.05 9.05 0 0 1-2.56 2.48l-.91-.74v-2.9a2.45 2.45 0 0 0 3.47 1.16Zm-1.4 6.61a2.74 2.74 0 0 0-2.4-1.57c-.25 0-.91 0-1.57.42a9.21 9.21 0 0 1 2.9-2.65l.98.83.09 2.97Z"></path></g><defs><clipPath id="a"><path fill="#fff" d="M.81 0h152v20H.81z"></path></clipPath></defs></svg>