<svg xmlns="http://www.w3.org/2000/svg" width="107" height="22" fill="none"><g fill="#000" clip-path="url(#a)"><path d="M74.21 11.57c0-1.61 2.46-4.1 3.69-4.1.33 0 .55.14.55.48 0 .9-1.89 2.5-4.24 3.62Zm-6.05-4.1c.34 0 .56.14.56.49 0 .9-1.9 2.49-4.24 3.62 0-1.62 2.45-4.11 3.68-4.11Zm-25 4.29c0-1.93 2.93-4.06 5.2-4.06.44 0 .9.08 1.3.24-2.67 4.24-6.5 5.93-6.5 3.82Zm-2.52 8.87c-.26 0-.43-.13-.43-.4 0-.6 1.18-2.16 4.28-3.28-1.32 2.16-2.85 3.68-3.85 3.68Zm-17.4-8.87c0-1.86 2.9-4.06 5.21-4.06.47 0 .9.07 1.29.24-2.8 4.4-6.5 5.86-6.5 3.82Zm18.04-8.5c.25 0 .37.12.37.36 0 1.1-2.64 4.52-5.3 6.68.68-2.35 3.68-7.04 4.93-7.04Zm59.86 9.71c2-2.51-.62-6.19 2.21-7.18-.06-.71-.73-1.13-1.57-1.13-.76 0-1.58.41-2.1 1.09-2.99 3.85-6.09 6.82-7.86 6.82-.6 0-.8-.27-.8-.74 0-1.43 1.8-3.54 3.2-5.01.17-.2.25-.38.25-.56 0-.43-.5-.72-1.1-.72-1.53 0-4.7 2.42-7.04 4.62.84-1.58 1.77-2.84 1.77-3.53 0-.71-.75-.92-1.61-.9-3.34 4.44-7.63 7.72-10.38 7.72-.71 0-1.19-.24-1.49-.6 3.5-1.43 6.43-3.82 6.43-5.59 0-1.1-.91-1.58-2.2-1.58-3.3 0-7.47 3.51-7.68 7.03-3.18 1.14-5.55.94-6.28.15 3.5-1.44 6.43-3.83 6.43-5.6 0-1.09-.92-1.57-2.2-1.57-3.33 0-7.55 3.57-7.69 7.11-1.59.5-3.4.7-3.4-.6 0-2.17 3.24-3.95 3.24-5.39 0-.4-.17-.73-.48-.9a9.15 9.15 0 0 1-3.69.97c.3-.9-.01-1.6-.9-1.6-1.28 0-2.27 1.45-2.27 2.64 0 .51.19.87.5 1.11a16.46 16.46 0 0 1-5.1 4.56 43.95 43.95 0 0 0 1.87-4.88c1.7-1 2.56-3.05-.87-3.05-2.8 0-5.91 1.7-7.85 3.96-2.54 2.97-5.63 4.63-6.18 2.37 4.2-3.15 8.09-7.6 8.04-9.82-.01-.8-.49-1.35-1.61-1.35-2.66 0-8.86 6.05-9.39 11.43-4.44 2.38-3.94-1.37-2.58-3.34 1.97-1.01 3.34-3.25-.34-3.25-5.34 0-9.73 4.97-9.66 8.14.03.94.5 1.72 1.5 1.72 1.14 0 2.98-.8 4.91-2.8-.37 1.92.07 2.8 1.64 2.8 1.28 0 2.91-.64 4.64-1.64.29.9 1.03 1.64 2.5 1.64 1.51 0 3.39-1.2 4.85-2.74-.07.34-.11.68-.11 1.02 0 1.11.6 1.72 1.48 1.72 1 0 2.49-.8 4.13-2.34a21 21 0 0 1-.9 2.12c-3.53 1.25-7.18 2.6-7.18 5.04 0 1.04.86 1.66 1.95 1.66 2.65 0 5.9-3.17 7.94-6.25a20.24 20.24 0 0 0 7.7-6.33c.6.02 1.25-.08 1.85-.24-1.93 2.05-2.82 3.38-2.82 4.68 0 1.07.81 1.66 2.25 1.66 1.25 0 2.83-.45 4.7-1.27.54.84 1.67 1.27 3.13 1.27A18 18 0 0 0 71.38 14c.42.88 1.41 1.52 3.01 1.52 3.25 0 6.2-2.06 8.67-4.27-1.12 1.7-2.78 4.27-.44 4.27.37 0 .88-.06 1.3-.2a16.3 16.3 0 0 1 5.98-6.3c-1.77 2.2-2.5 3.88-2.5 4.97 0 1 .62 1.53 1.64 1.53 3.11 0 6.77-3.2 9.92-6.87.16 1.4 1.01 2.9-.48 4.2-2.25-.05-3.51.6-3.51 1.66 0 .65.54 1 1.32 1s1.55-.22 2.26-.57c1.27.36 2.57.76 4.1.76 2.21 0 3.78-1.12 3.83-2.97-1.28.67-3.33.42-5.34.24Z"></path><path d="M11.92 10.65c.05-2.99 2.16-6.12 3.23-6.12.31 0 .38.2.38.42 0 1.02-1.52 3.75-3.61 5.7ZM22.52 0c-.99 0-1.95.6-2.57 1.5 2.94 1.93-.66 11.5-5.98 11.5-.64 0-1.18-.18-1.54-.56 2.88-2.6 4.96-6.12 4.96-8.2 0-1.06-.52-1.73-1.74-1.73-3.53 0-7.25 5.79-6.56 9.97-2.23.79-3.33-.2-3.33-2.19 0-4.15 4.33-8.45 4.08-9.74-4.5 1.39-8-1.84-9.63 3.41 2.19-1.19 4.2.71 6.7-.68-2.15 2.47-4.3 5.96-4.28 8.91.02 1.93 1.07 3.33 3.32 3.33a8 8 0 0 0 3.9-1.19c.55.7 1.43 1.19 2.79 1.19 5.51 0 11.54-7.75 11.54-13.28 0-1.46-.59-2.23-1.65-2.24Z"></path></g><defs><clipPath id="a"><path fill="#fff" d="M.21 0h106.27v22H.21z"></path></clipPath></defs></svg>