<svg xmlns="http://www.w3.org/2000/svg" width="102" height="18" fill="none"><g clip-path="url(#a)"><path fill="#000" d="M21.18 5.03a6.4 6.4 0 0 0-6.52 6.5A6.33 6.33 0 0 0 21.18 18a6.4 6.4 0 0 0 6.57-6.5 6.37 6.37 0 0 0-6.57-6.47Zm.02 10.29c-2.08 0-3.6-1.62-3.6-3.8 0-2.2 1.5-3.81 3.58-3.81 2.1 0 3.64 1.64 3.64 3.82 0 2.17-1.53 3.79-3.62 3.79Zm7.35-7.47h1.82v9.9h2.9V5.28h-4.72v2.58ZM7.34 7.71a3.3 3.3 0 0 1 3.2 2.34h3.08a6.1 6.1 0 0 0-6.26-5.02 6.4 6.4 0 0 0-6.52 6.5A6.33 6.33 0 0 0 7.36 18a6.13 6.13 0 0 0 6.23-5.05h-3.05a3.28 3.28 0 0 1-3.18 2.37c-2.1 0-3.58-1.62-3.58-3.8 0-2.2 1.45-3.81 3.56-3.81Zm76.48 2.6-2.14-.3c-1.02-.15-1.74-.49-1.74-1.29 0-.87.94-1.3 2.23-1.3 1.4 0 2.3.6 2.5 1.6h2.8c-.31-2.52-2.25-4-5.23-4-3.08 0-5.11 1.58-5.11 3.8 0 2.13 1.33 3.36 4.02 3.74l2.13.32c1.04.14 1.63.55 1.63 1.33 0 .99-1.02 1.4-2.43 1.4-1.72 0-2.69-.7-2.83-1.77h-2.86c.26 2.45 2.18 4.16 5.67 4.16 3.17 0 5.28-1.45 5.28-3.94 0-2.22-1.52-3.38-3.92-3.74ZM31.82.13a1.8 1.8 0 0 0-1.87 1.84c0 1.06.8 1.83 1.87 1.83a1.8 1.8 0 0 0 1.87-1.83A1.8 1.8 0 0 0 31.82.12Zm42.69 9.42c0-2.7-1.65-4.51-5.14-4.51-3.3 0-5.14 1.66-5.5 4.22h2.88c.15-.99.92-1.8 2.57-1.8 1.48 0 2.2.64 2.2 1.44 0 1.04-1.33 1.3-2.98 1.48-2.23.24-4.99 1.01-4.99 3.91 0 2.25 1.67 3.7 4.34 3.7 2.09 0 3.4-.87 4.05-2.25.1 1.23 1.02 2.03 2.3 2.03h1.7v-2.59H74.5V9.54Zm-2.86 3.14c0 1.67-1.46 2.9-3.23 2.9-1.09 0-2-.45-2-1.42 0-1.23 1.47-1.57 2.83-1.72 1.3-.12 2.03-.4 2.4-.96v1.2ZM56.2 5.03c-1.63 0-2.99.67-3.95 1.8V0h-2.91v17.76h2.86v-1.64a5.04 5.04 0 0 0 4 1.88c3.49 0 6.13-2.75 6.13-6.47 0-3.73-2.7-6.5-6.13-6.5Zm-.44 10.29c-2.08 0-3.61-1.62-3.61-3.8 0-2.17 1.55-3.81 3.63-3.81 2.11 0 3.6 1.62 3.6 3.82 0 2.17-1.54 3.79-3.62 3.79ZM42.39 5.02c-1.9 0-3.13.78-3.86 1.87V5.27h-2.88v12.49h2.9v-6.8c0-1.9 1.22-3.25 3.01-3.25 1.68 0 2.72 1.18 2.72 2.9v7.15h2.9v-7.37c0-3.14-1.61-5.36-4.8-5.36Zm59.22 6.1a5.9 5.9 0 0 0-6.14-6.1 6.32 6.32 0 0 0-6.47 6.5A6.31 6.31 0 0 0 95.52 18c3.03 0 5.4-1.79 6.01-4.32H98.5c-.43 1.1-1.5 1.74-2.93 1.74-1.87 0-3.27-1.16-3.59-3.2h9.63v-1.1Zm-9.46-.97a3.26 3.26 0 0 1 3.28-2.59c1.64 0 2.9.94 3.2 2.59h-6.48Z"></path></g><defs><clipPath id="a"><path fill="#fff" d="M.84 0h100.77v18H.84z"></path></clipPath></defs></svg>