<svg xmlns="http://www.w3.org/2000/svg" width="71" height="22" fill="none"><g clip-path="url(#a)"><path fill="#000" d="M37.51 5.53a1.43 1.43 0 1 1-2.86 0c0-.8.62-1.43 1.43-1.43.82.02 1.43.66 1.43 1.43Zm-5.9 2.88v.35s-.68-.88-2.13-.88a4.22 4.22 0 0 0-4.28 4.36 4.22 4.22 0 0 0 4.28 4.36c1.47 0 2.13-.9 2.13-.9v.38c0 .17.13.3.31.3h1.78V8.1h-1.78c-.18 0-.3.16-.3.31Zm0 5.31c-.33.48-.99.9-1.78.9-1.41 0-2.49-.88-2.49-2.38s1.08-2.37 2.49-2.37c.77 0 1.47.44 1.78.9v2.95Zm3.42-5.62h2.11v8.28h-2.11V8.1Zm31.58-.22c-1.46 0-2.14.88-2.14.88V4.12h-2.11v12.26h1.78c.18 0 .3-.15.3-.3v-.38s.69.9 2.14.9c2.4 0 4.28-1.85 4.28-4.36a4.22 4.22 0 0 0-4.25-4.36Zm-.36 6.72c-.81 0-1.45-.42-1.78-.9v-2.95c.33-.44 1.03-.9 1.78-.9 1.41 0 2.5.87 2.5 2.37s-1.09 2.38-2.5 2.38Zm-5-3.13v4.94h-2.11v-4.7c0-1.36-.44-1.91-1.63-1.91-.64 0-1.3.33-1.72.81v5.77h-2.11V8.1h1.67c.18 0 .31.16.31.31v.35a3.03 3.03 0 0 1 2.25-.88c.92 0 1.7.27 2.3.8.76.61 1.04 1.4 1.04 2.8Zm-12.7-3.59c-1.46 0-2.14.88-2.14.88V4.12H44.3v12.26h1.78c.18 0 .3-.15.3-.3v-.38s.7.9 2.15.9c2.4 0 4.27-1.85 4.27-4.36a4.2 4.2 0 0 0-4.25-4.36Zm-.35 6.72c-.82 0-1.46-.42-1.79-.9v-2.95c.33-.44 1.04-.9 1.79-.9 1.4 0 2.48.87 2.48 2.37S49.6 14.6 48.2 14.6Zm-5.73-6.72c.64 0 .97.11.97.11v1.96s-1.76-.6-2.86.66v5.8h-2.12V8.1h1.78c.18 0 .31.15.31.3v.35a2.9 2.9 0 0 1 1.92-.88ZM20.5 15.64c-.1-.27-.22-.55-.33-.8l-.5-1.12-.03-.02c-1.52-3.3-3.14-6.65-4.86-9.96l-.07-.13-.53-1.03c-.22-.4-.44-.82-.79-1.21A3.56 3.56 0 0 0 10.6 0C9.5 0 8.51.48 7.78 1.32c-.33.4-.57.82-.79 1.21l-.53 1.04-.06.13C4.7 7 3.05 10.35 1.53 13.65l-.02.05-.5 1.12c-.12.24-.23.5-.34.8a4.68 4.68 0 0 0 4.95 6.34 5.82 5.82 0 0 0 2.2-.75c.91-.5 1.77-1.24 2.74-2.3a11.57 11.57 0 0 0 2.73 2.3 5.82 5.82 0 0 0 2.77.79 4.67 4.67 0 0 0 4.65-4c.18-.78.09-1.55-.2-2.36Zm-9.93 1.14a10.86 10.86 0 0 1-2.22-4.1c-.11-.5-.13-.94-.07-1.34.05-.35.18-.66.35-.92.42-.6 1.13-.97 1.94-.97.82 0 1.54.35 1.94.97.18.26.3.57.35.92.07.4.05.86-.06 1.34a11.2 11.2 0 0 1-2.23 4.1Zm8.79 1.04a3.27 3.27 0 0 1-2 2.57c-.53.22-1.1.29-1.68.22a4.33 4.33 0 0 1-1.67-.57c-.8-.44-1.59-1.12-2.51-2.14 1.45-1.78 2.33-3.4 2.66-4.86.16-.69.18-1.3.11-1.87a3.57 3.57 0 0 0-.6-1.5 3.71 3.71 0 0 0-3.1-1.57c-1.28 0-2.42.6-3.1 1.57-.31.44-.51.94-.6 1.5-.09.57-.06 1.2.11 1.87.33 1.45 1.24 3.1 2.67 4.89a9.9 9.9 0 0 1-2.51 2.13c-.58.33-1.13.5-1.68.57a3.27 3.27 0 0 1-3.68-2.8c-.06-.54-.02-1.1.2-1.71.07-.22.18-.44.29-.7.15-.36.33-.73.5-1.1l.03-.05c1.52-3.28 3.15-6.63 4.84-9.89l.07-.13.53-1.01c.17-.36.37-.69.61-.97a2.3 2.3 0 0 1 3.53 0c.24.28.44.61.61.97l.53 1.01.07.13c1.67 3.28 3.3 6.63 4.82 9.91v.02c.18.36.33.75.5 1.1.12.27.23.49.3.71.17.57.24 1.12.15 1.7Z"></path></g><defs><clipPath id="a"><path fill="#fff" d="M.36 0h70.5v22H.35z"></path></clipPath></defs></svg>