<svg xmlns="http://www.w3.org/2000/svg" width="67" height="18" fill="none"><path fill="#000" d="M13.1 7.95v8.53c0 .06-.01.17-.09.2 0 0-1.85 1.32-4.92 1.32C4.4 18 .01 16.84.01 9.2 0 1.56 3.84 0 7.59 0c3.24 0 4.55.73 4.75.86.06.08.1.14.1.21l-.63 2.65c0 .13-.13.3-.3.25-.53-.16-1.34-.5-3.22-.5-2.19 0-4.54.63-4.54 5.55s2.23 5.5 3.84 5.5c1.37 0 1.86-.16 1.86-.16v-3.42H7.26c-.16 0-.28-.12-.28-.25V7.95c0-.13.12-.25.28-.25h5.56c.16 0 .28.12.28.25Zm53.29 3.47c0 5.1-1.65 6.55-4.53 6.55a5.69 5.69 0 0 1-3.75-1.23s-.06.68-.13.77c-.05.09-.12.12-.21.12h-2.2c-.15 0-.28-.12-.28-.25L55.32.86c0-.13.11-.25.25-.25h3.16c.14 0 .26.12.26.25v5.6s1.22-.78 3-.78l-.02-.03c1.79 0 4.42.67 4.42 5.77ZM41.15.64c.13 0 .25.12.25.25v16.52c0 .13-.12.25-.25.25h-3.17a.26.26 0 0 1-.25-.25l.03-7.06h-4.92v7.06c0 .13-.12.25-.25.25h-3.17c-.12 0-.25-.12-.25-.25V.89c0-.13.12-.25.25-.25h3.17c.13 0 .25.12.25.25v6.08h4.92V.9c0-.13.12-.25.25-.25h3.14Zm12.28 5.41c.16 0 .28.12.28.25l-.03 11.1c0 .14-.09.26-.25.26h-2c-.1 0-.2-.06-.23-.14-.05-.08-.12-.66-.12-.66S49.4 18 47.33 18c-2.5 0-4.34-.82-4.34-4.09v-7.6c0-.13.12-.25.26-.25h3.18c.13 0 .25.12.25.26v7.06c0 1.11.33 1.62 1.44 1.62 1.12 0 1.93-.58 1.93-.58V6.33c0-.16.1-.28.26-.28h3.12Zm-25.87 8.87a.26.26 0 0 1 .21.27v2.23c0 .1-.04.2-.13.24-.15.07-1.1.33-1.89.33-1.72 0-4.25-.38-4.25-4V9.1h-1.65c-.13 0-.25-.12-.25-.28V6.8c0-.12.07-.23.2-.26.1-.01 1.72-.41 1.72-.41V2.9c0-.12.07-.19.2-.19h3.21c.14 0 .21.07.21.2v3.13h2.37c.11 0 .23.12.23.25v2.53c0 .16-.1.28-.23.28h-2.37v4.66c0 .7.4 1.23 1.56 1.23.37 0 .72-.07.86-.08ZM18.2 6.03c.13 0 .25.12.25.26v10.95c0 .27-.07.4-.37.4h-2.85c-.25 0-.45-.1-.45-.4V6.34c0-.17.12-.3.26-.3h3.16Zm44.58 5.62c0-2.69-1.09-3.04-2.23-2.92-.9.05-1.6.5-1.6.5v5.23s.72.5 1.8.54c1.54.04 2.03-.5 2.03-3.35ZM16.64 1.01c1.11 0 2.02.9 2.02 2.05s-.9 2.05-2.02 2.05c-1.14 0-2.05-.9-2.05-2.05 0-1.14.9-2.05 2.05-2.05Zm10.91 13.9.02.01h-.01l-.04-.01h.03Z"></path></svg>