<svg xmlns="http://www.w3.org/2000/svg" fill="none" viewBox="0 0 375 188" height="188" width="375">
<g clip-path="url(#clip0_5238_148850)">
<rect fill="#F3FFE3" height="187.5" width="375"></rect>
<g clip-path="url(#clip1_5238_148850)">
<rect fill="white" height="187.5" width="375"></rect>
<rect fill="#721C1C" transform="rotate(90 114.351 0.738037)" height="114.348" width="187.007" y="0.738037" x="114.351"></rect>
<rect fill="#FAFD5D" transform="rotate(180 41.6221 47.8208)" height="47.8209" width="41.6219" y="47.8208" x="41.6221"></rect>
<rect fill="#721C1C" height="47.9996" width="114.348" y="139.744" x="0.000976562"></rect>
<rect fill="#874FFF" rx="17.3943" height="34.7887" width="89.1001" y="141.948" x="12.7861"></rect>
<rect fill="black" transform="rotate(-135 24.0693 47.9778)" height="9.76257" width="33.9365" y="47.9778" x="24.0693"></rect>
<rect fill="black" transform="rotate(180 42.1289 28.772)" height="9.76257" width="33.9365" y="28.772" x="42.1289"></rect>
<rect fill="black" transform="matrix(-0.707107 0.707107 0.707107 0.707107 24.0693 0.000976562)" height="9.76257" width="33.9365"></rect>
<rect fill="#0A5C35" height="47.8209" width="72.1741" y="0.00390625" x="42.2422"></rect>
<path fill="#FFC9C1" d="M48.5039 91.7956C48.5039 96.7569 52.5258 100.779 57.4871 100.779C62.4484 100.779 66.4703 96.7569 66.4703 91.7956H48.5039ZM24.4582 81.4867V92.0183H42.4246V81.4867H24.4582ZM90.3031 92.0183V59.6248H72.3367V92.0183H90.3031ZM48.5039 81.4867V91.7956H66.4703V81.4867H48.5039ZM57.3807 124.941C75.5633 124.941 90.3031 110.201 90.3031 92.0183H72.3367C72.3367 100.278 65.6407 106.974 57.3807 106.974V124.941ZM24.4582 92.0183C24.4582 110.201 39.1981 124.941 57.3807 124.941V106.974C49.1207 106.974 42.4246 100.278 42.4246 92.0183H24.4582ZM45.4643 60.4807C33.8629 60.4807 24.4582 69.8854 24.4582 81.4867H42.4246C42.4246 79.808 43.7855 78.4471 45.4643 78.4471V60.4807ZM45.4643 78.4471C47.143 78.4471 48.5039 79.808 48.5039 81.4867H66.4703C66.4703 69.8854 57.0656 60.4807 45.4643 60.4807V78.4471Z"></path>
<g clip-path="url(#clip2_5238_148850)">
<rect fill="#B98E01" transform="translate(114)" height="189.159" width="277"></rect>
<g clip-path="url(#clip3_5238_148850)">
<path stroke-width="1.40772" stroke="#874FFF" d="M238.334 -1.03999L45.0919 191.571"></path>
<path stroke-width="1.40772" stroke="#874FFF" d="M229.97 -1.03999L36.7276 191.571"></path>
<path stroke-width="1.40772" stroke="#874FFF" d="M221.608 -1.03999L28.4921 191.571"></path>
<path stroke-width="1.40772" stroke="#874FFF" d="M213.374 -1.03999L20.1319 191.571"></path>
<path stroke-width="1.40772" stroke="#874FFF" d="M205.013 -1.03999L11.7706 191.571"></path>
<path stroke-width="1.40772" stroke="#874FFF" d="M196.657 -1.03999L3.54094 191.571"></path>
<path stroke-width="1.40772" stroke="#874FFF" d="M188.415 -1.03999L-4.82709 191.571"></path>
<path stroke-width="1.40772" stroke="#874FFF" d="M180.068 -1.03999L-13.1738 191.571"></path>
<path stroke-width="1.40772" stroke="#874FFF" d="M171.691 -1.03999L-21.4249 191.571"></path>
<path stroke-width="1.40772" stroke="#874FFF" d="M163.464 -1.03999L-29.7783 191.571"></path>
<path stroke-width="1.40772" stroke="#874FFF" d="M155.103 -1.03999L-38.0137 191.571"></path>
<path stroke-width="1.40772" stroke="#874FFF" d="M146.869 -1.03999L-46.2471 191.571"></path>
<path stroke-width="1.40772" stroke="#874FFF" d="M138.635 -1.03999L-54.6074 191.571"></path>
<path stroke-width="1.40772" stroke="#874FFF" d="M130.273 -1.03999L-62.8428 191.571"></path>
<path stroke-width="1.40772" stroke="#874FFF" d="M122.04 -1.03999L-71.0762 191.571"></path>
<path stroke-width="1.40772" stroke="#874FFF" d="M113.807 -1.03999L-79.4355 191.571"></path>
<path stroke-width="1.40772" stroke="#874FFF" d="M561.254 -1.03999L368.138 191.571"></path>
<path stroke-width="1.40772" stroke="#874FFF" d="M553.02 -1.03999L359.777 191.571"></path>
<path stroke-width="1.40772" stroke="#874FFF" d="M544.658 -1.03999L351.416 191.571"></path>
<path stroke-width="1.40772" stroke="#874FFF" d="M536.291 -1.03999L343.175 191.571"></path>
<path stroke-width="1.40772" stroke="#874FFF" d="M528.063 -1.03999L334.821 191.571"></path>
<path stroke-width="1.40772" stroke="#874FFF" d="M519.698 -1.03999L326.456 191.571"></path>
<path stroke-width="1.40772" stroke="#874FFF" d="M511.34 -1.03999L318.224 191.571"></path>
<path stroke-width="1.40772" stroke="#874FFF" d="M503.098 -1.03999L309.856 191.571"></path>
<path stroke-width="1.40772" stroke="#874FFF" d="M494.748 -1.03999L301.506 191.571"></path>
<path stroke-width="1.40772" stroke="#874FFF" d="M486.387 -1.03999L293.27 191.571"></path>
<path stroke-width="1.40772" stroke="#874FFF" d="M478.147 -1.03999L284.904 191.571"></path>
<path stroke-width="1.40772" stroke="#874FFF" d="M469.792 -1.03999L276.676 191.571"></path>
<path stroke-width="1.40772" stroke="#874FFF" d="M461.549 -1.03999L268.433 191.571"></path>
<path stroke-width="1.40772" stroke="#874FFF" d="M453.314 -1.03999L260.072 191.571"></path>
<path stroke-width="1.40772" stroke="#874FFF" d="M444.963 -1.03999L251.847 191.571"></path>
<path stroke-width="1.40772" stroke="#874FFF" d="M436.72 -1.03999L243.603 191.571"></path>
<path stroke-width="1.40772" stroke="#874FFF" d="M428.486 -1.03999L235.244 191.571"></path>
<path stroke-width="1.40772" stroke="#874FFF" d="M420.137 -1.03999L227.02 191.571"></path>
<path stroke-width="1.40772" stroke="#874FFF" d="M411.894 -1.03999L218.777 191.571"></path>
<path stroke-width="1.40772" stroke="#874FFF" d="M403.66 -1.03999L210.418 191.571"></path>
<path stroke-width="1.40772" stroke="#874FFF" d="M395.302 -1.03999L202.185 191.571"></path>
<path stroke-width="1.40772" stroke="#874FFF" d="M387.064 -1.03999L193.822 191.571"></path>
<path stroke-width="1.40772" stroke="#874FFF" d="M378.703 -1.03999L185.461 191.571"></path>
<path stroke-width="1.40772" stroke="#874FFF" d="M370.342 -1.03999L177.226 191.571"></path>
<path stroke-width="1.40772" stroke="#874FFF" d="M362.105 -1.03999L168.863 191.571"></path>
<path stroke-width="1.40772" stroke="#874FFF" d="M353.747 -1.03999L160.505 191.571"></path>
<path stroke-width="1.40772" stroke="#874FFF" d="M345.376 -1.03999L152.26 191.571"></path>
<path stroke-width="1.40772" stroke="#874FFF" d="M337.164 -1.03999L143.922 191.571"></path>
<path stroke-width="1.40772" stroke="#874FFF" d="M328.787 -1.03999L135.545 191.571"></path>
<path stroke-width="1.40772" stroke="#874FFF" d="M320.426 -1.03999L127.309 191.571"></path>
<path stroke-width="1.40772" stroke="#874FFF" d="M312.198 -1.03999L118.956 191.571"></path>
<path stroke-width="1.40772" stroke="#874FFF" d="M303.837 -1.03999L110.721 191.571"></path>
<path stroke-width="1.40772" stroke="#874FFF" d="M295.594 -1.03999L102.477 191.571"></path>
<path stroke-width="1.40772" stroke="#874FFF" d="M287.369 -1.03999L94.127 191.571"></path>
<path stroke-width="1.40772" stroke="#874FFF" d="M279.005 -1.03999L85.8886 191.571"></path>
<path stroke-width="1.40772" stroke="#874FFF" d="M270.765 -1.03999L77.6484 191.571"></path>
<path stroke-width="1.40772" stroke="#874FFF" d="M262.534 -1.03999L69.2921 191.571"></path>
<path stroke-width="1.40772" stroke="#874FFF" d="M254.173 -1.03999L61.0566 191.571"></path>
<path stroke-width="1.40772" stroke="#874FFF" d="M245.938 -1.03999L52.8222 191.571"></path>
<rect fill="#721C1C" height="46.9413" width="72.0386" y="-0.0690918" x="320.359"></rect>
<rect fill="#874FFF" height="46.9413" width="72.0386" y="93.8137" x="320.359"></rect>
<rect fill="#FAFD5D" height="46.9413" width="72.0386" y="46.8708" x="320.359"></rect>
<rect fill="#0A5C35" height="46.9413" width="72.0386" y="140.754" x="320.359"></rect>
<rect stroke-width="1.02347" stroke="#FF7676" fill="#5D4493" height="193.154" width="203.483" y="-1.32274" x="50.8399"></rect>
<path fill="#FF01E6" d="M181.604 95.1109C181.604 110.289 169.299 122.594 154.121 122.594C138.942 122.594 126.637 110.289 126.637 95.1109H181.604ZM255.982 64.1625V94.7839H201.016V64.1625H255.982ZM52.9176 94.7839V-3.04736H107.884V94.7839H52.9176ZM181.604 64.1625V95.1109H126.637V64.1625H181.604ZM154.45 196.316C98.3752 196.316 52.9176 150.859 52.9176 94.7839H107.884C107.884 120.501 128.732 141.35 154.45 141.35V196.316ZM255.982 94.7839C255.982 150.859 210.525 196.316 154.45 196.316V141.35C180.168 141.35 201.016 120.501 201.016 94.7839H255.982ZM191.31 -0.509974C227.027 -0.509974 255.982 28.4449 255.982 64.1625H201.016C201.016 58.8021 196.67 54.4566 191.31 54.4566V-0.509974ZM191.31 54.4566C185.949 54.4566 181.604 58.8021 181.604 64.1625H126.637C126.637 28.4449 155.592 -0.509974 191.31 -0.509974V54.4566Z"></path>
<rect fill="#FF7676" height="189.157" width="199.219" y="-1.04102" x="-13.3369"></rect>
<path fill="#721C1C" d="M33.5339 187.664L88.2946 -2.51438H130.916L185.677 187.664H149.529L138.469 143.154H80.7414L69.6814 187.664H33.5339ZM88.0249 113.211H131.186L110.684 29.8565H108.526L88.0249 113.211Z"></path>
</g>
</g>
<rect fill="white" height="187.5" width="375"></rect>
<g clip-path="url(#clip4_5238_148850)">
<rect fill="white" transform="translate(-49 -95)" height="545" width="436"></rect>
<rect fill="#F3FFE3" transform="translate(-49 -95)" height="436" width="436"></rect>
<rect fill="white" transform="translate(-49 -95)" height="436" width="436"></rect>
<g clip-path="url(#clip5_5238_148850)">
<g clip-path="url(#clip6_5238_148850)">
<rect fill="#B98E01" transform="translate(1.54883 -115.22)" height="263.218" width="385.449"></rect>
<g clip-path="url(#clip7_5238_148850)">
<path stroke-width="1.95887" stroke="#874FFF" d="M174.564 -115.274L-94.3346 152.746"></path>
<path stroke-width="1.95887" stroke="#874FFF" d="M162.929 -115.274L-105.97 152.746"></path>
<path stroke-width="1.95887" stroke="#874FFF" d="M151.293 -115.274L-117.431 152.746"></path>
<path stroke-width="1.95887" stroke="#874FFF" d="M139.836 -115.274L-129.063 152.746"></path>
<path stroke-width="1.95887" stroke="#874FFF" d="M128.2 -115.274L-140.699 152.746"></path>
<path stroke-width="1.95887" stroke="#874FFF" d="M116.573 -115.274L-152.151 152.746"></path>
<path stroke-width="1.95887" stroke="#874FFF" d="M105.1 -115.274L-163.799 152.746"></path>
<path stroke-width="1.95887" stroke="#874FFF" d="M93.4873 -115.274L-175.412 152.746"></path>
<path stroke-width="1.95887" stroke="#874FFF" d="M81.8291 -115.274L-186.895 152.746"></path>
<path stroke-width="1.95887" stroke="#874FFF" d="M70.3867 -115.274L-198.512 152.746"></path>
<path stroke-width="1.95887" stroke="#874FFF" d="M58.752 -115.274L-209.972 152.746"></path>
<path stroke-width="1.95887" stroke="#874FFF" d="M47.294 -115.274L-221.43 152.746"></path>
<path stroke-width="1.95887" stroke="#874FFF" d="M35.8369 -115.274L-233.062 152.746"></path>
<path stroke-width="1.95887" stroke="#874FFF" d="M24.2012 -115.274L-244.523 152.746"></path>
<path stroke-width="1.95887" stroke="#874FFF" d="M12.7442 -115.274L-255.98 152.746"></path>
<path stroke-width="1.95887" stroke="#874FFF" d="M1.28713 -115.274L-267.612 152.746"></path>
<path stroke-width="1.95887" stroke="#874FFF" d="M635.538 -115.274L366.639 152.746"></path>
<path stroke-width="1.95887" stroke="#874FFF" d="M623.91 -115.274L355.186 152.746"></path>
<path stroke-width="1.95887" stroke="#874FFF" d="M612.453 -115.274L343.554 152.746"></path>
<path stroke-width="1.95887" stroke="#874FFF" d="M600.817 -115.274L331.918 152.746"></path>
<path stroke-width="1.95887" stroke="#874FFF" d="M589.183 -115.274L320.459 152.746"></path>
<path stroke-width="1.95887" stroke="#874FFF" d="M577.732 -115.274L308.833 152.746"></path>
<path stroke-width="1.95887" stroke="#874FFF" d="M566.09 -115.274L297.191 152.746"></path>
<path stroke-width="1.95887" stroke="#874FFF" d="M554.462 -115.274L285.738 152.746"></path>
<path stroke-width="1.95887" stroke="#874FFF" d="M542.997 -115.274L274.098 152.746"></path>
<path stroke-width="1.95887" stroke="#874FFF" d="M531.369 -115.274L262.47 152.746"></path>
<path stroke-width="1.95887" stroke="#874FFF" d="M519.733 -115.274L251.009 152.746"></path>
<path stroke-width="1.95887" stroke="#874FFF" d="M508.269 -115.274L239.369 152.746"></path>
<path stroke-width="1.95887" stroke="#874FFF" d="M496.641 -115.274L227.917 152.746"></path>
<path stroke-width="1.95887" stroke="#874FFF" d="M485.176 -115.274L216.452 152.746"></path>
<path stroke-width="1.95887" stroke="#874FFF" d="M473.718 -115.274L204.819 152.746"></path>
<path stroke-width="1.95887" stroke="#874FFF" d="M462.091 -115.274L193.367 152.746"></path>
<path stroke-width="1.95887" stroke="#874FFF" d="M450.625 -115.274L181.901 152.746"></path>
<path stroke-width="1.95887" stroke="#874FFF" d="M439.168 -115.274L170.269 152.746"></path>
<path stroke-width="1.95887" stroke="#874FFF" d="M427.548 -115.274L158.824 152.746"></path>
<path stroke-width="1.95887" stroke="#874FFF" d="M416.075 -115.274L147.351 152.746"></path>
<path stroke-width="1.95887" stroke="#874FFF" d="M404.618 -115.274L135.719 152.746"></path>
<path stroke-width="1.95887" stroke="#874FFF" d="M392.998 -115.274L124.274 152.746"></path>
<path stroke-width="1.95887" stroke="#874FFF" d="M381.524 -115.274L112.625 152.746"></path>
<path stroke-width="1.95887" stroke="#874FFF" d="M369.89 -115.274L100.991 152.746"></path>
<path stroke-width="1.95887" stroke="#874FFF" d="M358.262 -115.274L89.5378 152.746"></path>
<path stroke-width="1.95887" stroke="#874FFF" d="M346.797 -115.274L77.8978 152.746"></path>
<path stroke-width="1.95887" stroke="#874FFF" d="M335.169 -115.274L66.2699 152.746"></path>
<path stroke-width="1.95887" stroke="#874FFF" d="M323.525 -115.274L54.8014 152.746"></path>
<path stroke-width="1.95887" stroke="#874FFF" d="M312.092 -115.274L43.1927 152.746"></path>
<path stroke-width="1.95887" stroke="#874FFF" d="M300.433 -115.274L31.5335 152.746"></path>
<path stroke-width="1.95887" stroke="#874FFF" d="M288.798 -115.274L20.0739 152.746"></path>
<path stroke-width="1.95887" stroke="#874FFF" d="M277.348 -115.274L8.44857 152.746"></path>
<path stroke-width="1.95887" stroke="#874FFF" d="M265.712 -115.274L-3.01204 152.746"></path>
<path stroke-width="1.95887" stroke="#874FFF" d="M254.247 -115.274L-14.4769 152.746"></path>
<path stroke-width="1.95887" stroke="#874FFF" d="M242.798 -115.274L-26.1012 152.746"></path>
<path stroke-width="1.95887" stroke="#874FFF" d="M231.162 -115.274L-37.5618 152.746"></path>
<path stroke-width="1.95887" stroke="#874FFF" d="M219.705 -115.274L-49.0189 152.746"></path>
<path stroke-width="1.95887" stroke="#874FFF" d="M208.239 -115.274L-60.6598 152.746"></path>
<path stroke-width="1.95887" stroke="#874FFF" d="M196.605 -115.274L-72.1195 152.746"></path>
<path stroke-width="1.95887" stroke="#874FFF" d="M185.147 -115.274L-83.5775 152.746"></path>
<rect fill="#874FFF" height="65.3194" width="100.243" y="16.7122" x="288.707"></rect>
<rect fill="#FAFD5D" height="65.3194" width="100.243" y="-48.6072" x="288.707"></rect>
<rect fill="#0A5C35" height="65.3194" width="100.243" y="82.0317" x="288.707"></rect>
<rect stroke-width="1.42418" stroke="#FF7676" fill="#5D4493" height="268.777" width="283.149" y="-115.671" x="-86.3475"></rect>
<path fill="#FF01E6" d="M95.6141 18.5187C95.6141 39.6399 78.4919 56.7621 57.3707 56.7621C36.2494 56.7621 19.1273 39.6399 19.1273 18.5187H95.6141ZM199.113 -24.5464V18.0636H122.626V-24.5464H199.113ZM-83.4548 18.0637V-118.07H-6.96806V18.0637H-83.4548ZM95.6141 -24.5464V18.5187H19.1273V-24.5464H95.6141ZM57.8288 159.347C-20.2 159.347 -83.4548 96.0925 -83.4548 18.0637H-6.96806C-6.96806 53.85 22.0425 82.8606 57.8288 82.8606V159.347ZM199.113 18.0636C199.113 96.0924 135.858 159.347 57.8288 159.347V82.8606C93.6152 82.8606 122.626 53.85 122.626 18.0636H199.113ZM109.12 -114.539C158.821 -114.539 199.113 -74.2479 199.113 -24.5464H122.626C122.626 -32.0055 116.579 -38.0522 109.12 -38.0522V-114.539ZM109.12 -38.0522C101.661 -38.0522 95.6141 -32.0054 95.6141 -24.5464H19.1273C19.1273 -74.2479 59.4183 -114.539 109.12 -114.539V-38.0522Z"></path>
<rect fill="#FF7676" height="263.215" width="277.215" y="-115.276" x="-175.658"></rect>
<path fill="#721C1C" d="M-111.146 148.52L-34.9462 -116.116H24.3623L100.563 148.52H50.2629L34.8727 86.5836H-45.4566L-60.8468 148.52H-111.146ZM-35.3216 44.9175H24.7377L-3.79043 -71.072H-6.7934L-35.3216 44.9175Z"></path>
</g>
</g>
</g>
<rect fill="#721C1C" transform="rotate(90 272.543 -31.8674)" height="152.822" width="249.93" y="-31.8674" x="272.543"></rect>
<rect fill="#FAFD5D" transform="rotate(180 175.349 31.0588)" height="63.9113" width="55.6265" y="31.0588" x="175.349"></rect>
<rect fill="#721C1C" height="64.15" width="152.822" y="153.912" x="119.719"></rect>
<rect fill="#874FFF" rx="23.247" height="46.494" width="119.08" y="156.857" x="136.812"></rect>
<rect fill="black" transform="rotate(-135 151.898 31.2676)" height="13.0474" width="45.3552" y="31.2676" x="151.898"></rect>
<rect fill="black" transform="rotate(180 176.028 5.59839)" height="13.0474" width="45.3552" y="5.59839" x="176.028"></rect>
<rect fill="black" transform="matrix(-0.707107 0.707107 0.707107 0.707107 151.898 -32.8523)" height="13.0474" width="45.3552"></rect>
<rect fill="#0A5C35" height="63.9113" width="96.4586" y="-32.8481" x="176.177"></rect>
<path fill="#FFC9C1" d="M184.541 89.8286C184.541 96.4592 189.916 101.834 196.547 101.834C203.177 101.834 208.552 96.4592 208.552 89.8286H184.541ZM152.404 76.0511V90.1263H176.416V76.0511H152.404ZM240.404 90.1263V46.8333H216.393V90.1263H240.404ZM184.541 76.0511V89.8286H208.552V76.0511H184.541ZM196.404 134.126C220.705 134.126 240.404 114.427 240.404 90.1263H216.393C216.393 101.166 207.444 110.115 196.404 110.115V134.126ZM152.404 90.1263C152.404 114.427 172.104 134.126 196.404 134.126V110.115C185.365 110.115 176.416 101.166 176.416 90.1263H152.404ZM180.478 47.9771C164.974 47.9771 152.404 60.5463 152.404 76.0511H176.416C176.416 73.8075 178.235 71.9887 180.478 71.9887V47.9771ZM180.478 71.9887C182.722 71.9887 184.541 73.8075 184.541 76.0511H208.552C208.552 60.5463 195.983 47.9771 180.478 47.9771V71.9887Z"></path>
<rect fill="white" transform="translate(-49 -95)" height="436" width="436"></rect>
<rect fill="#95B9AC" transform="matrix(-1 0 0 1 387 -95.991)" height="545.991" width="379.518"></rect>
<g clip-path="url(#clip8_5238_148850)">
<rect fill="#FFC9C1" height="14.7434" width="13.7983" y="150.171" x="6.52441"></rect>
<rect fill="#FFC9C1" height="14.7434" width="13.7983" y="179.664" x="6.52441"></rect>
<rect fill="#874FFF" height="14.7434" width="13.7983" y="164.914" x="6.52441"></rect>
<rect fill="#FFC9C1" height="14.7434" width="13.7983" y="150.171" x="34.1074"></rect>
<rect fill="#FFC9C1" height="14.7434" width="13.7983" y="179.664" x="34.1074"></rect>
<rect fill="#874FFF" height="14.7434" width="13.7983" y="164.914" x="34.1074"></rect>
<rect fill="#874FFF" height="14.7434" width="13.7983" y="150.171" x="20.3271"></rect>
<rect fill="#874FFF" height="14.7434" width="13.7983" y="179.664" x="20.3271"></rect>
<rect fill="#FFC9C1" height="14.7434" width="13.7983" y="164.914" x="20.3271"></rect>
<g clip-path="url(#clip9_5238_148850)">
<rect fill="#E4FF97" transform="translate(292.853 158.643) rotate(90)" height="73.7437" width="73.0414"></rect>
<path stroke-width="0.299772" stroke="black" fill="black" d="M247.868 222.154C245.111 221.136 242.615 219.675 240.587 217.495L261.444 222.094C261.362 222.107 261.28 222.119 261.199 222.131C261.261 222.079 261.319 222.021 261.371 221.954C261.079 221.998 260.786 222.04 260.492 222.081C259.731 222.187 258.97 222.294 258.222 222.461L258.255 222.607C258.255 222.607 258.255 222.607 258.255 222.607C257.213 222.84 256.168 222.974 255.107 222.987M247.868 222.154C247.868 222.154 247.868 222.154 247.868 222.154L247.92 222.014L247.868 222.154ZM247.868 222.154C248.409 222.354 248.978 222.494 249.544 222.588M249.544 222.588C251.385 222.896 253.245 223.011 255.107 222.987M249.544 222.588C249.544 222.588 249.544 222.588 249.544 222.588L249.568 222.44L249.544 222.588ZM255.107 222.987C255.107 222.987 255.107 222.987 255.107 222.987L255.105 222.837L255.107 222.987ZM273.255 177.601C275.706 180.247 276.933 183.418 277.162 186.961L277.312 186.951C277.312 186.951 277.312 186.951 277.312 186.951C277.581 191.092 277.326 195.207 276.266 199.257C275.256 203.118 273.733 206.764 271.836 210.255C270.996 211.801 270.111 213.325 269.19 214.825C268.078 216.639 266.676 218.217 265.125 219.657L273.365 177.499M273.255 177.601L273.365 177.499C273.365 177.499 273.365 177.499 273.365 177.499M273.255 177.601L273.365 177.499M273.255 177.601C271.03 175.198 268.441 173.407 265.234 172.593M273.365 177.499C271.126 175.081 268.512 173.271 265.271 172.447M265.234 172.593L265.271 172.447M265.234 172.593L265.271 172.447C265.271 172.447 265.271 172.447 265.271 172.447M265.234 172.593C264.361 172.371 263.486 172.145 262.625 171.878M265.271 172.447L256.357 171.501C258.462 171.302 260.563 171.236 262.625 171.878M262.625 171.878L262.67 171.735C262.67 171.735 262.67 171.735 262.67 171.735L262.625 171.878ZM265.416 173.293L265.416 173.293C265.103 173.214 264.79 173.137 264.477 173.059C263.715 172.871 262.952 172.683 262.193 172.478C260.27 171.958 258.317 172.002 256.353 172.238L265.416 173.293ZM265.416 173.293C268.45 174.053 270.861 175.798 272.934 178.102L273.046 178.002M265.416 173.293L273.046 178.002M273.046 178.002L272.934 178.102C275.202 180.622 276.29 183.639 276.584 186.982M273.046 178.002C275.339 180.551 276.437 183.601 276.734 186.968M253.245 173.401L253.245 173.401C250.917 174.527 248.909 176.131 246.973 177.832L246.874 177.719L246.973 177.832C245.276 179.323 243.694 180.937 242.479 182.857L242.479 182.857C240.783 185.536 239.236 188.299 237.899 191.174L237.899 191.174C237.263 192.541 236.775 193.964 236.603 195.458C236.328 197.858 236.362 200.268 236.696 202.658C237.078 205.386 237.718 208.07 238.431 210.735C239.01 212.899 240.123 214.803 241.648 216.449C243.518 218.465 245.83 219.812 248.397 220.76L248.345 220.901L248.397 220.76C248.834 220.922 249.298 221.035 249.762 221.112L249.763 221.112C251.536 221.407 253.327 221.516 255.126 221.496C256.186 221.484 257.228 221.346 258.253 221.058C258.771 220.912 259.312 220.84 259.835 220.771C259.863 220.767 259.892 220.763 259.921 220.76C260.166 220.727 260.409 220.7 260.651 220.674C261.451 220.586 262.227 220.501 262.97 220.206L262.971 220.206C263.14 220.139 263.295 220.066 263.4 219.964C265.083 218.332 266.671 216.628 268.008 214.698L268.131 214.783L268.008 214.698C269.808 212.098 271.277 209.309 272.722 206.494C274.251 203.516 275.268 200.354 276.009 197.095C276.444 195.178 276.554 193.222 276.665 191.248C276.681 190.958 276.697 190.668 276.715 190.377L276.715 190.372C276.702 190.015 276.694 189.659 276.687 189.304C276.669 188.526 276.652 187.753 276.584 186.982M253.245 173.401L276.734 186.968M253.245 173.401C253.363 173.344 253.48 173.287 253.597 173.229M253.245 173.401L253.597 173.229M276.584 186.982L276.734 186.968M276.584 186.982C276.584 186.982 276.584 186.982 276.584 186.982L276.734 186.968M253.597 173.229C254.499 172.787 255.379 172.355 256.353 172.238L253.597 173.229Z"></path>
</g>
<g clip-path="url(#clip10_5238_148850)">
<rect fill="#874FFF" transform="translate(392.95 58.5479) rotate(90)" height="100.598" width="99.6403"></rect>
<mask fill="white" id="path-156-inside-1_5238_148850">
<path d="M345.936 120.798C345.936 115.748 344.207 110.849 341.038 106.917C337.868 102.985 333.449 100.256 328.513 99.1837C323.578 98.1114 318.424 98.7604 313.909 101.023C309.393 103.285 305.788 107.025 303.692 111.62L315.283 116.906C316.172 114.957 317.7 113.372 319.615 112.412C321.53 111.453 323.716 111.177 325.808 111.632C327.901 112.087 329.776 113.244 331.12 114.912C332.464 116.579 333.197 118.656 333.197 120.798H345.936Z"></path>
</mask>
<path mask="url(#path-156-inside-1_5238_148850)" stroke-width="0.0937237" stroke="#FF3737" fill="#FF3737" d="M345.936 120.798C345.936 115.748 344.207 110.849 341.038 106.917C337.868 102.985 333.449 100.256 328.513 99.1837C323.578 98.1114 318.424 98.7604 313.909 101.023C309.393 103.285 305.788 107.025 303.692 111.62L315.283 116.906C316.172 114.957 317.7 113.372 319.615 112.412C321.53 111.453 323.716 111.177 325.808 111.632C327.901 112.087 329.776 113.244 331.12 114.912C332.464 116.579 333.197 118.656 333.197 120.798H345.936Z"></path>
<mask fill="white" id="path-157-inside-2_5238_148850">
<path d="M341.247 120.798C341.247 115.748 342.975 110.849 346.145 106.917C349.314 102.985 353.734 100.256 358.669 99.1837C363.605 98.1114 368.759 98.7604 373.274 101.023C377.789 103.285 381.395 107.025 383.49 111.62L371.9 116.906C371.011 114.957 369.482 113.372 367.567 112.412C365.653 111.453 363.467 111.177 361.374 111.632C359.281 112.087 357.407 113.244 356.063 114.912C354.719 116.579 353.986 118.656 353.986 120.798H341.247Z"></path>
</mask>
<path mask="url(#path-157-inside-2_5238_148850)" stroke-width="0.0937237" stroke="#FF3737" fill="#FF3737" d="M341.247 120.798C341.247 115.748 342.975 110.849 346.145 106.917C349.314 102.985 353.734 100.256 358.669 99.1837C363.605 98.1114 368.759 98.7604 373.274 101.023C377.789 103.285 381.395 107.025 383.49 111.62L371.9 116.906C371.011 114.957 369.482 113.372 367.567 112.412C365.653 111.453 363.467 111.177 361.374 111.632C359.281 112.087 357.407 113.244 356.063 114.912C354.719 116.579 353.986 118.656 353.986 120.798H341.247Z"></path>
<path stroke-width="14.1523" stroke="#FF3737" d="M341.246 120.798C341.246 108.07 337.136 98.8441 332.452 92.7236C327.127 85.7668 317.953 84.0583 309.192 84.0583V84.0583"></path>
<path stroke-width="14.1523" stroke="#FF3737" d="M345.929 120.798C345.929 108.07 350.039 98.8441 354.723 92.7236C360.048 85.7668 369.222 84.0583 377.982 84.0583V84.0583"></path>
<rect stroke-width="0.0468618" stroke="#FF3737" fill="#FF3737" height="22.2594" width="20.7598" y="120.634" x="333.206"></rect>
<circle fill="#67FF7F" r="5.16383" cy="83.834" cx="309.109"></circle>
<circle fill="#67FF7F" r="5.16383" cy="83.834" cx="377.806"></circle>
<circle fill="#67FF7F" r="5.16383" cy="113.47" cx="377.806"></circle>
<circle fill="#67FF7F" r="5.16383" cy="114.368" cx="309.109"></circle>
<circle fill="#67FF7F" r="5.16383" cy="142.208" cx="344.581"></circle>
</g>
</g>
<g clip-path="url(#clip11_5238_148850)">
<rect fill="#721C1C" transform="translate(-49 -39.1357)" height="167.449" width="205.999"></rect>
<path fill="#0A5C35" d="M65.2448 -0.925003L65.333 0.82648L65.2448 -0.925003ZM47.6827 -9.04128L46.2166 -8.07887L47.6827 -9.04128ZM49.1487 -10.0037C47.9733 -11.7941 46.5994 -13.4908 45.0277 -15.0625L42.5476 -12.5824C43.9491 -11.1809 45.1718 -9.6704 46.2166 -8.07887L49.1487 -10.0037ZM45.0277 -15.0625C32.6043 -27.4859 12.4621 -27.4859 0.0387234 -15.0625L2.51883 -12.5824C13.5725 -23.6361 31.4939 -23.636 42.5476 -12.5824L45.0277 -15.0625ZM0.0387234 -15.0625C-12.3846 -2.63918 -12.3846 17.5031 0.038722 29.9264L2.51883 27.4463C-8.5348 16.3927 -8.5348 -1.5288 2.51883 -12.5824L0.0387234 -15.0625ZM2.01832 33.3087C2.80077 35.6209 4.11355 37.7921 5.95228 39.6309L8.43239 37.1508C6.98326 35.7016 5.95414 33.9973 5.34065 32.1844L2.01832 33.3087ZM32.1774 60.9817C33.7863 63.5187 35.6965 65.918 37.9068 68.1284L40.3869 65.6483C38.36 63.6214 36.6112 61.4241 35.1393 59.1033L32.1774 60.9817ZM37.9068 68.1284C54.1165 84.3381 80.3976 84.3381 96.6073 68.1284L94.1272 65.6483C79.2872 80.4882 55.2269 80.4882 40.3869 65.6483L37.9068 68.1284ZM96.6073 68.1284C112.817 51.9187 112.817 25.6376 96.6073 9.42792L94.1272 11.908C108.967 26.748 108.967 50.8083 94.1272 65.6483L96.6073 68.1284ZM96.6073 9.42792C87.9679 0.788471 76.4645 -3.24608 65.1566 -2.67648L65.333 0.82648C75.6925 0.304657 86.2179 3.99876 94.1272 11.908L96.6073 9.42792ZM5.95228 39.6309C9.10801 42.7866 14.7881 46.5343 19.959 50.2067C22.5951 52.0789 25.1428 53.9578 27.3054 55.8016C29.4856 57.6606 31.1757 59.4023 32.1774 60.9817L35.1393 59.1033C33.8552 57.0785 31.8486 55.0661 29.581 53.1327C27.2957 51.1842 24.6443 49.2323 21.9899 47.3471C16.5795 43.5046 11.3123 40.0307 8.43239 37.1508L5.95228 39.6309ZM0.038722 29.9264C0.9212 30.8089 1.56818 31.9785 2.01832 33.3087L5.34065 32.1844C4.77129 30.5019 3.88533 28.8128 2.51883 27.4463L0.038722 29.9264ZM65.1566 -2.67648C59.9606 -2.41475 54.8789 -3.62244 51.4911 -7.01017L49.011 -4.53006C53.3645 -0.176583 59.5951 1.11551 65.333 0.82648L65.1566 -2.67648ZM46.2166 -8.07887C47.0069 -6.87514 47.9056 -5.6355 49.011 -4.53006L51.4911 -7.01017C50.631 -7.87033 49.884 -8.88365 49.1487 -10.0037L46.2166 -8.07887Z"></path>
<path stroke-miterlimit="10" stroke-width="3.50773" stroke="#FDED5D" d="M-17.6573 70.3571C-20.3675 91.8816 -5.52506 112.011 15.8214 115.763C29.8894 118.235 43.4513 113.23 52.5534 103.681C59.5845 96.3058 69.8226 92.9578 79.9134 94.3112C80.0754 94.3351 80.2332 94.3534 80.3959 94.3724C101.828 96.9978 121.833 82.2164 125.624 60.9418C128.377 45.5171 122.15 30.6946 110.805 21.6623C101.003 13.8616 92 5.13962 84.0409 -4.54255C77.7108 -12.2477 68.5562 -17.6692 57.8644 -19.0962C36.323 -21.9687 16.059 -7.19541 12.2029 14.2102C12.1539 14.474 12.1092 14.7435 12.0651 15.008C10.1903 26.6924 4.14416 37.2142 -4.60798 45.1733C-11.559 51.4959 -16.3906 60.2444 -17.6622 70.3564L-17.6573 70.3571Z"></path>
</g>
<rect fill="#FFC9C1" height="81.7216" width="103.839" y="-56.5593" x="205.299"></rect>
<path fill="#FF01E6" d="M264.61 -34.2985C264.61 -46.5927 274.576 -56.5591 286.87 -56.5591C299.164 -56.5591 309.131 -46.5927 309.131 -34.2985L309.131 2.90194C309.131 15.1961 299.164 25.1625 286.87 25.1625C274.576 25.1625 264.61 15.1961 264.61 2.90193L264.61 -1.50025L247.942 -1.50025L247.942 2.90194C247.942 15.1961 237.976 25.1625 225.682 25.1625C213.387 25.1625 203.421 15.1961 203.421 2.90193L203.421 -34.2985C203.421 -46.5927 213.387 -56.5591 225.682 -56.5591C237.976 -56.5591 247.942 -46.5927 247.942 -34.2985L247.942 -29.8644L264.61 -29.8644L264.61 -34.2985Z" clip-rule="evenodd" fill-rule="evenodd"></path>
<rect fill="#FDED5D" height="13.7972" width="13.7972" y="25.1621" x="191.754"></rect>
<rect fill="#FDED5D" height="13.7972" width="13.7972" y="25.1621" x="309.029"></rect>
<g clip-path="url(#clip12_5238_148850)">
<rect fill="white" transform="translate(-49 -95)" height="545" width="436"></rect>
<g clip-path="url(#clip13_5238_148850)">
<g clip-path="url(#clip14_5238_148850)">
<rect fill="#B98E01" transform="translate(-7.38086 -95)" height="545" width="394.382"></rect>
<rect fill="#721C1C" height="275.473" width="245.745" y="2.10913" x="-7.37988"></rect>
<rect fill="#FAFD5D" transform="translate(238.362 2.10913)" height="165.455" width="246.61"></rect>
<path fill="#0A5C35" d="M407.095 86.4757C407.095 39.8813 369.323 2.10912 322.729 2.10912C276.134 2.10911 238.362 39.8813 238.362 86.4757L238.362 89.6869L407.095 89.6869L407.095 86.4757ZM407.098 89.687L484.975 89.687L484.975 167.564L407.098 167.564L407.098 89.687ZM329.218 89.687L407.095 89.687L407.095 167.564L381.136 167.564C352.463 167.564 329.218 144.319 329.218 115.646L329.218 89.687ZM238.364 167.564L238.364 89.687L316.241 89.687L316.241 167.564L238.364 167.564Z" clip-rule="evenodd" fill-rule="evenodd"></path>
<path fill="#67FF7F" d="M92.9362 135.55C92.9362 148.03 103.053 158.146 115.533 158.146C128.012 158.146 138.129 148.03 138.129 135.55H92.9362ZM32.4514 109.619V136.11H77.6443V109.619H32.4514ZM198.078 136.11V54.6272H152.885V136.11H198.078ZM92.9362 109.619V135.55H138.129V109.619H92.9362ZM115.265 218.924C161.002 218.924 198.078 181.847 198.078 136.11H152.885C152.885 156.887 136.042 173.731 115.265 173.731V218.924ZM32.4514 136.11C32.4514 181.847 69.5283 218.924 115.265 218.924V173.731C94.4876 173.731 77.6443 156.887 77.6443 136.11H32.4514ZM85.2902 56.7801C56.1082 56.7801 32.4514 80.4369 32.4514 109.619H77.6443C77.6443 105.396 81.0675 101.973 85.2902 101.973V56.7801ZM85.2902 101.973C89.513 101.973 92.9362 105.396 92.9362 109.619H138.129C138.129 80.4369 114.472 56.7801 85.2902 56.7801V101.973Z"></path>
<rect fill="#4D49FC" rx="54.9955" height="109.991" width="239.8" y="167.591" x="238.358"></rect>
<rect fill="#67FF7F" rx="45.0864" height="90.1727" width="218" y="177.5" x="248.271"></rect>
<rect fill="#FF01E6" rx="35.1773" height="70.3545" width="196.2" y="187.409" x="258.18"></rect>
</g>
</g>
<path stroke-width="32.1652" stroke="#24CB71" d="M227.406 -47.3113L344.445 -164.335C353.765 -173.654 368.876 -173.653 378.195 -164.332V-164.332C387.515 -155.012 387.513 -139.901 378.192 -130.582L306.896 -59.2996C297.526 -49.9315 297.525 -34.7413 306.893 -25.3716V-25.3716C316.261 -16.0019 331.452 -16.0011 340.821 -25.3698L410.264 -94.8075"></path>
<path fill="#24CB71" d="M234.132 -30.9613C240.414 -37.2398 240.418 -47.4228 234.139 -53.7055C227.861 -59.9882 217.678 -59.9915 211.395 -53.7129L234.132 -30.9613ZM205.777 -25.3623L194.409 -36.7382L205.777 -25.3623ZM178.037 -110.228L220.771 -152.961L198.027 -175.706L155.293 -132.973L178.037 -110.228ZM231.776 -141.955L160.481 -70.6753L183.223 -47.9288L254.518 -119.209L231.776 -141.955ZM217.146 -13.9865L234.132 -30.9613L211.395 -53.7129L194.409 -36.7382L217.146 -13.9865ZM160.476 -13.9978C176.123 1.65129 201.493 1.6564 217.146 -13.9865L194.409 -36.7382C191.319 -33.6502 186.311 -33.6512 183.222 -36.7404L160.476 -13.9978ZM160.481 -70.6753C144.828 -55.0258 144.826 -29.6501 160.476 -13.9978L183.222 -36.7404C180.133 -39.8303 180.133 -44.8395 183.223 -47.9288L160.481 -70.6753ZM231.777 -152.961C234.816 -149.921 234.815 -144.994 231.776 -141.955L254.518 -119.209C270.12 -134.808 270.122 -160.102 254.523 -175.703L231.777 -152.961ZM220.771 -152.961C223.81 -156 228.738 -156 231.777 -152.961L254.523 -175.703C238.923 -191.305 213.628 -191.306 198.027 -175.706L220.771 -152.961Z"></path>
<path fill="#FF3737" d="M91.1076 -187.945C117.486 -187.945 138.869 -166.562 138.869 -140.184C165.245 -140.181 186.626 -118.799 186.626 -92.4222C186.626 -66.046 165.245 -44.6635 138.87 -44.6607C138.87 -18.283 117.486 3.1002 91.1084 3.1002C64.7307 3.1002 43.3472 -18.283 43.3469 -44.6607H43.3461L43.3461 -140.184C43.3461 -166.562 64.7296 -187.945 91.1076 -187.945ZM43.3435 -140.184C16.9656 -140.184 -4.41797 -118.8 -4.41797 -92.4221C-4.41797 -66.0441 16.9656 -44.6606 43.3435 -44.6606L43.3435 -140.184ZM86.6465 -115.985H96.1988V-109.233C96.1988 -102.411 101.73 -96.8801 108.552 -96.8801H115.303V-87.3278H108.552C101.73 -87.3278 96.1988 -81.797 96.1988 -74.9745V-68.2232H86.6465V-74.9745C86.6465 -81.797 81.1157 -87.3278 74.2931 -87.3278H67.5419V-96.8801H74.2931C81.1157 -96.8801 86.6465 -102.411 86.6465 -109.233V-115.985Z" clip-rule="evenodd" fill-rule="evenodd"></path>
</g>
<g clip-path="url(#clip15_5238_148850)">
<rect fill="white" transform="translate(-49 -95)" height="545" width="436"></rect>
<g clip-path="url(#clip16_5238_148850)">
<g clip-path="url(#clip17_5238_148850)">
<rect fill="#B98E01" transform="translate(-7.38086 -95)" height="545" width="394.382"></rect>
<rect fill="#721C1C" height="265.295" width="236.419" y="-172.022" x="155.33"></rect>
<path fill="#67FF7F" d="M253.769 -27.814C253.769 -13.938 265.018 -2.6893 278.894 -2.6893C292.77 -2.6893 304.019 -13.938 304.019 -27.814H253.769ZM186.517 -56.6463V-27.1911H236.766V-56.6463H186.517ZM370.675 -27.191V-117.791H320.426V-27.191H370.675ZM253.769 -56.6463V-27.814H304.019V-56.6463H253.769ZM278.596 64.8882C329.45 64.8882 370.675 23.6629 370.675 -27.191H320.426C320.426 -4.08905 301.698 14.6388 278.596 14.6388V64.8882ZM186.517 -27.1911C186.517 23.6629 227.742 64.8882 278.596 64.8882V14.6388C255.494 14.6388 236.766 -4.08907 236.766 -27.1911H186.517ZM245.268 -115.397C212.821 -115.397 186.517 -89.0935 186.517 -56.6463H236.766C236.766 -61.3415 240.573 -65.1477 245.268 -65.1477V-115.397ZM245.268 -65.1477C249.963 -65.1477 253.769 -61.3415 253.769 -56.6463H304.019C304.019 -89.0935 277.715 -115.397 245.268 -115.397V-65.1477Z"></path>
</g>
<rect fill="#4D49FC" rx="105.532" height="211.064" width="460.157" y="-117.791" x="-303.662"></rect>
<rect fill="#67FF7F" rx="86.5171" height="173.034" width="418.324" y="-98.7759" x="-284.633"></rect>
<rect fill="#FF01E6" rx="67.5023" height="135.005" width="376.492" y="-79.761" x="-265.614"></rect>
<rect fill="#FF7676" rx="47.5368" height="95.0737" width="334.659" y="-60.7468" x="-246.606"></rect>
</g>
<path stroke-width="32.1652" stroke="#24CB71" d="M219.483 232.916L336.522 115.892C345.843 106.573 360.953 106.574 370.273 115.895V115.895C379.592 125.215 379.591 140.326 370.27 149.646L298.973 220.927C289.603 230.296 289.602 245.486 298.97 254.855V254.855C308.339 264.225 323.529 264.226 332.898 254.857L402.341 185.42"></path>
<path fill="#24CB71" d="M241.694 233.758C247.975 227.478 247.975 217.295 241.694 211.014C235.413 204.733 225.23 204.733 218.95 211.014L241.694 233.758ZM197.852 254.856L186.48 243.484L197.852 254.856ZM163.927 220.928L152.556 209.554L163.927 220.928ZM235.224 149.645L223.853 138.272L235.224 149.645ZM201.476 115.894L190.104 104.521L201.476 115.894ZM170.114 169.999L212.848 127.266L190.104 104.521L147.37 147.254L170.114 169.999ZM223.853 138.272L152.556 209.554L175.298 232.301L246.595 161.018L223.853 138.272ZM209.224 266.228L241.694 233.758L218.95 211.014L186.48 243.484L209.224 266.228ZM152.551 266.226C168.2 281.878 193.574 281.879 209.224 266.228L186.48 243.484C183.391 246.572 178.385 246.572 175.297 243.484L152.551 266.226ZM152.556 209.554C136.904 225.203 136.902 250.576 152.551 266.226L175.297 243.484C172.209 240.396 172.209 235.389 175.298 232.301L152.556 209.554ZM223.854 127.266C226.893 130.306 226.892 135.233 223.853 138.272L246.595 161.018C262.197 145.419 262.199 120.126 246.6 104.524L223.854 127.266ZM212.848 127.266C215.887 124.227 220.815 124.227 223.854 127.266L246.6 104.524C231 88.9217 205.705 88.9206 190.104 104.521L212.848 127.266Z"></path>
<path fill="#FF3737" d="M88.1466 88.3181C114.525 88.3181 135.908 109.702 135.908 136.08C162.284 136.082 183.665 157.465 183.665 183.841C183.665 210.217 162.285 231.6 135.909 231.602C135.909 257.98 114.525 279.363 88.1475 279.363C61.7697 279.363 40.3863 257.98 40.386 231.602H40.3852L40.3852 136.08C40.3852 109.702 61.7687 88.3181 88.1466 88.3181ZM40.3826 136.08C14.0046 136.08 -7.37891 157.463 -7.37891 183.841C-7.37891 210.219 14.0046 231.603 40.3826 231.603L40.3826 136.08ZM83.6817 160.279H93.234V167.03C93.234 173.852 98.7648 179.383 105.587 179.383H112.339V188.935H105.587C98.7648 188.935 93.234 194.466 93.234 201.289V208.04H83.6817V201.289C83.6817 194.466 78.1509 188.935 71.3284 188.935H64.5771V179.383H71.3284C78.1509 179.383 83.6817 173.852 83.6817 167.03V160.279Z" clip-rule="evenodd" fill-rule="evenodd"></path>
</g>
</g>
</g>
</g>
<defs>
<clipPath id="clip0_5238_148850">
<rect fill="white" height="187.5" width="375"></rect>
</clipPath>
<clipPath id="clip1_5238_148850">
<rect fill="white" height="187.5" width="375"></rect>
</clipPath>
<clipPath id="clip2_5238_148850">
<rect transform="translate(114)" fill="white" height="189.159" width="277"></rect>
</clipPath>
<clipPath id="clip3_5238_148850">
<rect transform="translate(109.82 -1)" fill="white" height="192.116" width="577.386"></rect>
</clipPath>
<clipPath id="clip4_5238_148850">
<rect transform="translate(-49 -95)" fill="white" height="545" width="436"></rect>
</clipPath>
<clipPath id="clip5_5238_148850">
<rect transform="translate(1.55176 -95)" fill="white" height="436" width="385.449"></rect>
</clipPath>
<clipPath id="clip6_5238_148850">
<rect transform="translate(1.54883 -115.22)" fill="white" height="263.218" width="385.449"></rect>
</clipPath>
<clipPath id="clip7_5238_148850">
<rect transform="translate(-4.27148 -115.22)" fill="white" height="267.332" width="803.44"></rect>
</clipPath>
<clipPath id="clip8_5238_148850">
<rect transform="translate(7.48145 -95)" fill="white" height="436" width="379.518"></rect>
</clipPath>
<clipPath id="clip9_5238_148850">
<rect transform="translate(292.853 158.643) rotate(90)" fill="white" height="73.7437" width="73.0414"></rect>
</clipPath>
<clipPath id="clip10_5238_148850">
<rect transform="translate(392.95 58.5479) rotate(90)" fill="white" height="100.598" width="99.6403"></rect>
</clipPath>
<clipPath id="clip11_5238_148850">
<rect transform="translate(-49 -39.1357)" fill="white" height="167.449" width="205.999"></rect>
</clipPath>
<clipPath id="clip12_5238_148850">
<rect transform="translate(-49 -95)" fill="white" height="545" width="436"></rect>
</clipPath>
<clipPath id="clip13_5238_148850">
<rect transform="translate(-7.38184 -95)" fill="white" height="545" width="394.382"></rect>
</clipPath>
<clipPath id="clip14_5238_148850">
<rect transform="translate(-7.38086 -95)" fill="white" height="545" width="394.382"></rect>
</clipPath>
<clipPath id="clip15_5238_148850">
<rect transform="translate(-49 -95)" fill="white" height="545" width="436"></rect>
</clipPath>
<clipPath id="clip16_5238_148850">
<rect transform="translate(-7.38184 -95)" fill="white" height="545" width="394.382"></rect>
</clipPath>
<clipPath id="clip17_5238_148850">
<rect transform="translate(-7.38086 -95)" fill="white" height="545" width="394.382"></rect>
</clipPath>
</defs>
</svg>
