<svg xmlns="http://www.w3.org/2000/svg" width="90" height="22" fill="none"><path fill="#000" d="M89.43 9.83a1.31 1.31 0 0 0-.45-.1c-.6 0-1.03.35-1.4.86v-.08c0-.33-.07-.52-.2-.76l-1.07.28c.15.33.2.73.2 1.4v3.93h1.16V11.7c.04-.3.15-.43.32-.6.21-.2.48-.24.73-.24.12 0 .2.03.34.06l.37-1.1Zm-3.84 3.1v-.24c-.02-1.23-.24-1.89-.68-2.35a2.12 2.12 0 0 0-1.53-.59c-.68 0-1.23.24-1.67.76-.44.48-.68 1.16-.68 2.1 0 1.78.96 2.88 2.5 2.88.73 0 1.41-.25 1.97-.72l-.44-.7c-.42.35-.87.52-1.36.52-.52 0-.91-.19-1.17-.57A2.12 2.12 0 0 1 82.3 13v-.09h3.29v.02Zm-4.96 2.42-.2-.71c-.18.03-.3.01-.37-.08-.1-.1-.14-.35-.14-.87V8.97c0-.7 0-1.18-.09-1.56l-1.18.26c.1.43.12.81.12 1.6v4.72c0 .59.1.91.25 1.12.2.27.52.38.9.38.25-.01.48-.04.71-.14Zm-5.7-7.07a.79.79 0 0 0-.8-.78.8.8 0 0 0-.77.78c0 .43.35.78.76.78.45 0 .8-.34.8-.78Zm3.03 7.07-.2-.71-.14.01c-.22 0-.35-.1-.35-.53V8.97c0-.7 0-1.18-.1-1.56L76 7.67c.1.43.12.81.12 1.6v4.94c0 .81.45 1.28 1.12 1.28.3-.01.5-.04.72-.14Zm-3.25.01v-5.6l-1.16.2v5.4h1.16Zm-2.37 0-.65-7.47h-1.6l-1.45 5.54-1.5-5.54h-1.65l-.7 7.47h1.1l.52-6.27 1.7 6.27h.9l1.72-6.17.49 6.17h1.12Zm-8.88 0V11.3c0-1.02-.6-1.52-1.46-1.52-.56 0-1.07.22-1.66.73 0-.27-.06-.5-.19-.76l-1.06.3c.16.38.2.66.2 1.27v4.03h1.14v-3.97c.36-.37.89-.65 1.27-.65.44 0 .64.22.64.97v3.65h1.12v.01Zm-5.12-.5c-.4-.25-.49-.47-.49-1.1l.01-.17.03-1.62v-.36c0-.54-.03-.72-.1-.94-.2-.6-.81-.9-1.64-.9-.48 0-.97.09-1.47.3-.31.16-.56.24-.87.45l.51.81c.24-.16.39-.25.65-.37.39-.17.71-.25 1-.25.32 0 .5.08.64.24.12.15.15.35.15.74v.3h-.36c-1.78 0-2.76.64-2.76 1.92 0 .42.14.9.43 1.18.31.29.73.45 1.37.45.5 0 .85-.12 1.17-.34.12-.1.2-.16.35-.33.12.34.42.6.77.74l.6-.75Zm-5.67.5v-4.01c0-.6-.13-.98-.43-1.24-.22-.22-.6-.33-1-.33-.6 0-1.23.31-1.67.81a1.37 1.37 0 0 0-1.28-.8c-.52 0-1.1.27-1.48.69-.03-.27-.1-.5-.2-.68l-1.05.26c.15.36.19.56.19 1.36v3.96h1.1v-4.05c.45-.4.82-.56 1.16-.56.47 0 .6.24.6.87v3.73h1.12v-3.95c.46-.46.86-.68 1.2-.68.41 0 .57.24.57.8v3.84h1.17v-.02Zm-7.44-5.53a1.24 1.24 0 0 0-.44-.1c-.56 0-1.02.35-1.37.86v-.08c0-.33-.09-.52-.2-.76l-1.07.28c.13.33.2.73.2 1.4v3.93h1.16V11.7c.04-.3.13-.43.3-.6.21-.2.48-.24.73-.24.15 0 .2.03.34.06l.35-1.1Zm-3.83 3.1v-.24c-.02-1.23-.24-1.89-.7-2.35a2.08 2.08 0 0 0-1.52-.59c-.69 0-1.24.24-1.68.76a3.06 3.06 0 0 0-.66 2.1c0 1.78.94 2.88 2.5 2.88.74 0 1.4-.25 1.97-.72l-.44-.7c-.42.35-.86.52-1.36.52-.5 0-.92-.19-1.18-.57A1.96 1.96 0 0 1 38.1 13v-.09h3.29v.02Zm-5.5 2.43V7.89h-1.17v3.03H32V7.89h-1.15v7.47h1.15v-3.48h2.72v3.48h1.18Zm48.48-3.29H82.3c.02-.94.39-1.45 1.07-1.45.62 0 1 .58 1 1.45Zm-27.64.7-.03 1.3c-.23.38-.63.61-1.03.61-.52 0-.8-.3-.8-.85 0-.33.1-.56.28-.74.23-.22.65-.34 1.35-.34l.23.01Zm-16.54-.7h-2.1c.02-.94.4-1.45 1.07-1.45.65 0 1.03.58 1.03 1.45ZM18.04 16.8V5.27h-.2a25.25 25.25 0 0 1-1.14 5.08c-1.12 3.4-2.72 5.1-4.78 5.1-2.07 0-3.66-1.7-4.81-5.1-.5-1.4-.86-3.09-1.11-5.08h-.2V16.8a21.5 21.5 0 0 1 6.12-.81 21.2 21.2 0 0 1 6.12.81Zm4.87-5.8c0 3.03-1.08 5.63-3.22 7.78A10.55 10.55 0 0 1 11.92 22c-3.03 0-5.63-1.08-7.78-3.22a10.59 10.59 0 0 1-3.23-7.77c0-3.03 1.08-5.62 3.23-7.8A10.54 10.54 0 0 1 11.92 0a10.6 10.6 0 0 1 7.77 3.23 10.65 10.65 0 0 1 3.22 7.78Z"></path></svg>