<svg xmlns="http://www.w3.org/2000/svg" fill="none" viewBox="0 0 90 22" height="22" width="90">
<g id="vodafone">
<g id="Group">
<path fill="black" d="M11 22C17.075 22 21.998 17.075 21.998 11C21.998 4.92504 17.075 0 11 0C4.92504 0 0 4.92504 0 11C0 17.075 4.92504 22 11 22ZM4.90728 10.4221C4.92142 14.565 8.06601 17.1439 11.0873 17.1336C14.818 17.1215 17.0248 14.0577 17.0167 11.2607C17.0066 8.46573 15.4869 6.44479 12.1381 5.62832C12.1301 5.59395 12.1241 5.51916 12.1241 5.44847C12.118 3.33657 13.7105 1.47327 15.7112 1.05898C15.5233 0.994302 15.2141 0.970093 14.919 0.970093C12.6313 0.978173 10.1072 1.95834 8.26407 3.48213C6.3765 5.04634 4.89716 7.68368 4.90728 10.4221Z" clip-rule="evenodd" fill-rule="evenodd" id="Subtract"></path>
<g id="Group_2">
<path fill="black" d="M29.1011 15.5553L25.7383 7.53009H27.935L30.0328 12.8593L32.0659 7.53009H34.1636L30.8998 15.5553H29.1011Z" id="Vector"></path>
<path fill="black" d="M40.0161 11.5013C40.0161 11.1678 39.9778 10.8505 39.8989 10.5494C39.8221 10.2483 39.7049 9.98959 39.5493 9.77335C39.3937 9.55509 39.2057 9.38329 38.9834 9.25598C38.7611 9.12663 38.5004 9.06197 38.2013 9.06197C37.9022 9.06197 37.6395 9.12665 37.4192 9.25598C37.1969 9.38328 37.0069 9.55509 36.8533 9.77335C36.6977 9.98959 36.5805 10.2483 36.5037 10.5494C36.4249 10.8505 36.3865 11.1678 36.3865 11.5013C36.3865 11.8468 36.4249 12.1682 36.5037 12.4632C36.5805 12.7583 36.6937 13.017 36.8432 13.2393C36.9928 13.4616 37.1828 13.6374 37.4111 13.7667C37.6375 13.894 37.9022 13.9587 38.2013 13.9587C38.5004 13.9587 38.7611 13.894 38.9834 13.7667C39.2057 13.6374 39.3937 13.4616 39.5493 13.2393C39.7049 13.017 39.8221 12.7583 39.8989 12.4632C39.9777 12.1682 40.0161 11.8468 40.0161 11.5013ZM42.0472 11.5101C42.0472 12.0335 41.9663 12.5468 41.8067 13.052C41.645 13.5573 41.4065 14.0079 41.0893 14.4081C40.774 14.8082 40.3738 15.1296 39.8908 15.3741C39.4078 15.6186 38.844 15.7399 38.2013 15.7399C37.5566 15.7399 36.9928 15.6186 36.5118 15.3741C36.0288 15.1296 35.6287 14.8082 35.3114 14.4081C34.9961 14.0079 34.7576 13.5573 34.596 13.052C34.4363 12.5468 34.3555 12.0335 34.3555 11.5101C34.3555 10.9887 34.4363 10.4794 34.596 9.97817C34.7576 9.47899 34.9961 9.03238 35.3114 8.63829C35.6287 8.24421 36.0288 7.92893 36.5118 7.69047C36.9928 7.452 37.5566 7.33075 38.2013 7.33075C38.844 7.33075 39.4058 7.45202 39.8827 7.69047C40.3597 7.92893 40.7598 8.24421 41.0812 8.63829C41.4045 9.03238 41.645 9.47899 41.8067 9.97817C41.9663 10.4794 42.0472 10.9887 42.0472 11.5101Z" id="Vector_2"></path>
<path fill="black" d="M48.2494 9.29642C47.8513 9.1408 47.4814 9.06199 47.1379 9.06199C46.7862 9.06199 46.4811 9.13077 46.2284 9.26408C45.9738 9.39739 45.7636 9.57732 45.5979 9.80569C45.4322 10.0341 45.3089 10.2907 45.2261 10.5757C45.1432 10.8586 45.1008 11.1517 45.1008 11.4528C45.1008 11.7862 45.1371 12.1055 45.2099 12.4127C45.2806 12.7179 45.3918 12.9867 45.5413 13.215C45.6889 13.4434 45.8768 13.6273 46.1031 13.7667C46.3295 13.9042 46.5983 13.9749 46.9075 13.9749C47.1621 13.9749 47.4208 13.9042 47.6855 13.7667C47.9503 13.6273 48.1382 13.4616 48.2494 13.2736L48.2494 9.29642ZM48.4151 15.5553L48.3322 14.9409C48.1443 15.1511 47.8957 15.337 47.5845 15.4967C47.2753 15.6583 46.9095 15.7392 46.4891 15.7392C45.9374 15.7392 45.4484 15.622 45.03 15.3896C44.6076 15.1572 44.254 14.8459 43.967 14.4579C43.68 14.0699 43.4597 13.6192 43.3102 13.1079C43.1627 12.5986 43.0879 12.0651 43.0879 11.5094C43.0879 10.988 43.1647 10.4766 43.3183 9.97748C43.4739 9.4783 43.7083 9.03169 44.0236 8.6376C44.3409 8.24351 44.735 7.92825 45.2119 7.68977C45.6868 7.4513 46.2466 7.33003 46.8873 7.33003C47.3076 7.33003 47.7623 7.4088 48.2494 7.56245V4.4502H50.3128V15.5553H48.4151Z" id="Vector_3"></path>
<path fill="black" d="M56.1257 11.7923C55.9034 11.804 55.673 11.8247 55.4386 11.8509C55.2042 11.8792 54.9819 11.9156 54.7697 11.96C54.321 12.0489 54.0118 12.2005 53.838 12.4168C53.6662 12.635 53.5793 12.8695 53.5793 13.1261C53.5793 13.3909 53.6763 13.6051 53.8724 13.7668C54.0684 13.9264 54.3432 14.0072 54.701 14.0072C54.9697 14.0072 55.2304 13.9527 55.481 13.8415C55.7316 13.7304 55.9479 13.5909 56.1257 13.4252V11.7923ZM56.2914 15.5492L56.2106 14.949C55.9863 15.1955 55.7033 15.3896 55.3578 15.529C55.0122 15.6685 54.6343 15.7392 54.222 15.7392C53.8764 15.7392 53.543 15.6805 53.2277 15.5634C52.9084 15.4482 52.6275 15.2804 52.3829 15.0642C52.1384 14.8479 51.9403 14.5832 51.7908 14.2659C51.6392 13.9486 51.5645 13.5909 51.5645 13.1908C51.5645 12.7927 51.6412 12.439 51.7989 12.1338C51.9545 11.8287 52.1647 11.572 52.4335 11.3598C52.7002 11.1496 53.0074 10.9778 53.353 10.8445C53.6965 10.7112 54.0603 10.61 54.4382 10.5433C54.705 10.4888 54.998 10.4483 55.3153 10.42C55.6326 10.3917 55.8974 10.3675 56.1096 10.3452V10.228C56.1096 9.78342 55.9964 9.46812 55.766 9.27816C55.5376 9.09021 55.2224 8.99524 54.8222 8.99524C54.5878 8.99524 54.3635 9.02354 54.1513 9.08015C53.9391 9.1347 53.7511 9.20349 53.5834 9.28629C53.4156 9.3712 53.2681 9.45402 53.1388 9.53689C53.0115 9.61975 52.9084 9.69451 52.8296 9.76121L52.1465 8.31421C52.2354 8.23545 52.3708 8.14243 52.5547 8.03129C52.7386 7.92012 52.9589 7.81099 53.2216 7.70589C53.4823 7.60074 53.7754 7.51189 54.1028 7.43913C54.4301 7.36639 54.7838 7.33002 55.1597 7.33002C55.6043 7.33002 56.0105 7.3887 56.3763 7.50586C56.7421 7.62304 57.0594 7.80496 57.3262 8.05554C57.5909 8.30412 57.7991 8.6194 57.9506 9.00337C58.1002 9.38533 58.175 9.84811 58.175 10.3917V15.5492H56.2914Z" id="Vector_4"></path>
<path fill="black" d="M64.5527 6.28114C64.486 6.24888 64.3566 6.20034 64.1626 6.13963C63.9666 6.07906 63.71 6.04871 63.3866 6.04871C63.0996 6.04871 62.8571 6.13568 62.6631 6.30739C62.4691 6.47917 62.3721 6.76008 62.3721 7.1481V7.53006H64.104V9.19531H62.3883V15.5552H60.3228V9.19531H59.2578V7.53006H60.3228V7.09757C60.3228 6.57617 60.3895 6.13562 60.5229 5.77387C60.6563 5.41414 60.8422 5.11907 61.0807 4.89273C61.3192 4.66436 61.6001 4.49663 61.9214 4.39154C62.2448 4.28639 62.5944 4.23389 62.9723 4.23389C63.4715 4.23389 63.8837 4.28037 64.2111 4.3754C64.5385 4.47043 64.7305 4.53304 64.7851 4.5674L64.5527 6.28114Z" id="Vector_5"></path>
<path fill="black" d="M70.1802 11.5013C70.1802 11.1678 70.1398 10.8505 70.063 10.5494C69.9862 10.2483 69.869 9.98959 69.7134 9.77335C69.5577 9.55509 69.3698 9.38329 69.1475 9.25598C68.9252 9.12663 68.6645 9.06197 68.3654 9.06197C68.0663 9.06197 67.8036 9.12665 67.5833 9.25598C67.361 9.38328 67.171 9.55509 67.0154 9.77335C66.8618 9.98959 66.7446 10.2483 66.6658 10.5494C66.589 10.8505 66.5506 11.1678 66.5506 11.5013C66.5506 11.8468 66.589 12.1682 66.6658 12.4632C66.7446 12.7583 66.8578 13.017 67.0073 13.2393C67.1569 13.4616 67.3468 13.6374 67.5732 13.7667C67.8015 13.894 68.0663 13.9587 68.3654 13.9587C68.6645 13.9587 68.9252 13.894 69.1475 13.7667C69.3698 13.6374 69.5577 13.4616 69.7134 13.2393C69.869 13.017 69.9862 12.7583 70.063 12.4632C70.1398 12.1682 70.1802 11.8468 70.1802 11.5013ZM72.2112 11.5101C72.2112 12.0335 72.1304 12.5468 71.9687 13.052C71.8091 13.5573 71.5706 14.0079 71.2533 14.4081C70.9381 14.8082 70.5379 15.1296 70.0549 15.3741C69.5719 15.6186 69.0081 15.7399 68.3654 15.7399C67.7207 15.7399 67.1569 15.6186 66.6759 15.3741C66.1929 15.1296 65.7927 14.8082 65.4754 14.4081C65.1602 14.0079 64.9217 13.5573 64.76 13.052C64.5984 12.5468 64.5195 12.0335 64.5195 11.5101C64.5195 10.9887 64.5983 10.4794 64.76 9.97817C64.9217 9.47899 65.1602 9.03238 65.4754 8.63829C65.7927 8.24421 66.1929 7.92893 66.6759 7.69047C67.1569 7.452 67.7207 7.33075 68.3654 7.33075C69.0081 7.33075 69.5699 7.45202 70.0468 7.69047C70.5238 7.92893 70.9239 8.24421 71.2452 8.63829C71.5686 9.03238 71.8091 9.47899 71.9687 9.97817C72.1304 10.4794 72.2112 10.9887 72.2112 11.5101Z" id="Vector_6"></path>
<path fill="black" d="M78.6207 15.5553V10.9779C78.6207 10.3675 78.4934 9.89465 78.2388 9.56119C77.9821 9.22975 77.6284 9.06201 77.1717 9.06201C76.8504 9.06201 76.5533 9.14487 76.2825 9.3126C76.0097 9.47832 75.7732 9.66222 75.5732 9.8623V15.5553H73.5098V7.53013H75.3913L75.4903 8.1627C75.8136 7.89796 76.1754 7.69181 76.5816 7.54833C76.9858 7.40285 77.394 7.33209 77.8043 7.33209C78.2266 7.33209 78.6147 7.39472 78.9703 7.52206C79.326 7.6514 79.6312 7.85348 79.8858 8.13035C80.1425 8.40721 80.3385 8.76898 80.478 9.21156C80.6154 9.65617 80.6861 10.1897 80.6861 10.8101V15.5553H78.6207Z" id="Vector_7"></path>
<path fill="black" d="M87.1083 10.5777C87.0861 10.3008 87.0275 10.0583 86.9325 9.85415C86.8375 9.64801 86.7203 9.4823 86.5809 9.35497C86.4414 9.22562 86.2919 9.13266 86.1302 9.07001C85.9665 9.00945 85.8028 8.97909 85.6351 8.97909C85.2774 8.97909 84.9378 9.11241 84.6145 9.37925C84.2911 9.64601 84.1012 10.0441 84.0446 10.5777H87.1083ZM83.9961 12.059C84.0405 12.736 84.2507 13.2251 84.6307 13.5242C85.0086 13.8233 85.4997 13.9748 86.0999 13.9748C86.3788 13.9748 86.6415 13.9486 86.886 13.9001C87.1306 13.8496 87.3488 13.7868 87.5388 13.7081C87.7288 13.6312 87.8904 13.5525 88.0238 13.4757C88.1572 13.3969 88.2562 13.3241 88.3249 13.2574L88.8746 14.9408C88.7958 14.9954 88.6705 15.0702 88.4987 15.1652C88.327 15.2602 88.1127 15.3471 87.8581 15.4319C87.6035 15.5148 87.3023 15.5855 86.9588 15.6482C86.6152 15.7087 86.2373 15.7391 85.827 15.7391C85.3036 15.7391 84.8085 15.6562 84.3356 15.4905C83.8647 15.3228 83.4504 15.0641 83.0967 14.7145C82.7411 14.3649 82.4581 13.9304 82.248 13.409C82.0358 12.8875 81.9307 12.2651 81.9307 11.5436C81.9307 10.8666 82.0277 10.2664 82.2217 9.74499C82.4157 9.22359 82.6825 8.78502 83.02 8.42934C83.3595 8.07567 83.7536 7.80285 84.2022 7.61288C84.6529 7.42494 85.1318 7.32996 85.6431 7.32996C86.1544 7.32996 86.6253 7.41487 87.0598 7.58054C87.4923 7.74626 87.8662 8.00496 88.1835 8.35458C88.4987 8.7042 88.7493 9.15687 88.9312 9.71263C89.1151 10.2664 89.2061 10.9273 89.2061 11.6932V12.059L83.9961 12.059Z" id="Vector_8"></path>
</g>
</g>
</g>
</svg>
