<svg xmlns="http://www.w3.org/2000/svg" width="133" height="18" fill="none"><path fill="#000" d="M5.45 15.14h3.06c2.36 0 3.55-.78 3.55-2.29 0-1.47-1.27-2.28-3.74-2.28H5.45v4.57Zm0-11.01v4.24h2.69c2.01 0 3.06-.75 3.06-2.12 0-1.4-1.08-2.12-3.1-2.12H5.46ZM1.18 17.42v-2.28h1.8V4.13h-1.8V1.84h7.2c3.3 0 5.31 1.53 5.31 4.2a3.43 3.43 0 0 1-2.3 3.32c1.85.51 3.16 1.83 3.16 3.63 0 2.84-2.2 4.43-5.8 4.43H1.18ZM27.6 9.3c-.26-.9-.94-1.44-1.82-1.44-2.07 0-4.03 1.53-4.03 4.32v2.96h3.98v2.28h-8.87v-2.28h2.53V8.26H17.4V5.98h4.32V7.9a4.57 4.57 0 0 1 4.17-2.3c2.2 0 3.57 1.26 3.97 3.05l-2.26.65ZM39.69 12.8a9.4 9.4 0 0 0-2.93-.48c-1.5 0-2.95.48-2.95 1.85 0 1.02.91 1.5 2.17 1.5 1.75 0 3.7-.94 3.7-2.55v-.32Zm0-2.04v-.65c0-1.6-1.29-2.28-2.69-2.28-1.31 0-2.44.54-3.35 1.37l-1.56-1.69c1.07-1 2.6-1.9 4.91-1.9 2.88 0 5.1 1.52 5.1 4.42v5.1h1.67v2.29h-4.08V16.2c-.62 1-2.28 1.58-3.92 1.58-2.37 0-4.4-1.2-4.4-3.6 0-2.81 2.76-3.89 5.28-3.89 1.24 0 2.26.24 3.04.46ZM53.7 3.7h-2.65V.2h2.66v3.5Zm4.41 11.44v2.28H46.56v-2.28h4.78V8.26H47.7V5.98h6.02v9.16h4.4ZM60.96 15.14h1.74V8.26h-1.64V5.98h3.98v1.48c.7-1.13 2.15-1.86 3.92-1.86 2.55 0 4.38 1.61 4.38 4.22v5.32h1.74v2.28h-5.93v-2.28h1.82v-4.68c0-1.98-1.2-2.55-2.3-2.55-1.8 0-3.6 1.35-3.6 3.41v3.82h1.82v2.28h-5.93v-2.28ZM78.33 8.26h-2.98V5.98h2.98V1.84h2.36v4.14h5.56v2.28H80.7v4.8c0 1.78 1.24 2.5 2.66 2.5 1.34 0 2.47-.75 3.3-1.58l1.59 1.64a6.55 6.55 0 0 1-4.89 2.17c-2.87 0-5.02-1.58-5.02-4.64V8.26ZM101.13 9.3c-.27-.9-.94-1.44-1.83-1.44-2.06 0-4.02 1.53-4.02 4.32v2.96h3.97v2.28h-8.86v-2.28h2.52V8.26h-1.98V5.98h4.32V7.9a4.57 4.57 0 0 1 4.16-2.3c2.2 0 3.57 1.26 3.98 3.05l-2.26.65ZM107.5 10.52h7.03a3.47 3.47 0 0 0-3.41-2.74 3.61 3.61 0 0 0-3.63 2.74Zm9.53 5.15c-1.19 1.24-3.28 2.12-5.62 2.12-3.84 0-6.52-2.57-6.52-6.1 0-3.5 2.6-6.09 6.23-6.09 3.6 0 6.12 2.77 6.12 6.53v.4h-9.85c.4 1.9 1.98 3.06 4.05 3.06 1.72 0 3.2-.7 4-1.58l1.59 1.66ZM122.18 10.52h7.04a3.47 3.47 0 0 0-3.41-2.74 3.61 3.61 0 0 0-3.63 2.74Zm9.53 5.15c-1.18 1.24-3.27 2.12-5.6 2.12-3.85 0-6.53-2.57-6.53-6.1 0-3.5 2.6-6.09 6.23-6.09 3.6 0 6.12 2.77 6.12 6.53v.4h-9.86c.4 1.9 2 3.06 4.06 3.06 1.72 0 3.2-.7 4-1.58l1.59 1.66Z"></path></svg>