<svg xmlns="http://www.w3.org/2000/svg" width="86" height="18" fill="none"><g fill="#000" clip-path="url(#a)"><path d="M35.7 3.6v10.8h-1.87V5.92h-.02l-3.35 8.48H29.2l-3.43-8.48h-.02v8.48h-1.73V3.6h2.7l3.1 8h.05l3.28-8h2.55Zm1.56.82c0-.3.1-.55.32-.75.23-.2.48-.3.78-.3.32 0 .6.1.8.3.2.2.32.45.32.75s-.1.55-.32.75c-.23.2-.48.3-.8.3-.33 0-.58-.1-.78-.3-.2-.22-.32-.47-.32-.75Zm2.02 2.23v7.75h-1.82V6.65h1.82Zm5.53 6.42c.27 0 .57-.04.9-.2.32-.12.62-.3.9-.5v1.7c-.3.18-.63.3-1 .38-.38.08-.78.13-1.23.13a3.67 3.67 0 0 1-3.85-3.83c0-1.25.38-2.28 1.1-3.08.73-.8 1.75-1.2 3.1-1.2a4.6 4.6 0 0 1 1.85.43v1.75A2.87 2.87 0 0 0 44.83 8c-.72 0-1.3.22-1.75.7-.45.47-.65 1.1-.65 1.9 0 .78.23 1.4.65 1.83.43.42 1 .64 1.73.64Zm6.97-6.55a2.02 2.02 0 0 1 .7.1v1.85c-.1-.07-.22-.15-.42-.2-.2-.05-.4-.1-.68-.1-.45 0-.82.2-1.12.58-.3.37-.48.95-.48 1.75v3.9h-1.82V6.65h1.82v1.22h.03c.17-.42.42-.75.75-1a2.2 2.2 0 0 1 1.22-.35Zm.8 4.13c0-1.28.38-2.3 1.08-3.05a3.98 3.98 0 0 1 3-1.13c1.2 0 2.15.35 2.82 1.08.68.72 1.03 1.7 1.03 2.92 0 1.25-.38 2.25-1.08 3a3.9 3.9 0 0 1-2.95 1.13c-1.2 0-2.15-.35-2.85-1.05a4.01 4.01 0 0 1-1.05-2.9Zm1.9-.08c0 .8.18 1.43.55 1.86a2 2 0 0 0 1.58.64c.65 0 1.17-.2 1.52-.64.35-.43.53-1.05.53-1.9 0-.83-.18-1.46-.53-1.9a1.88 1.88 0 0 0-1.5-.66c-.67 0-1.17.23-1.55.68-.42.47-.6 1.1-.6 1.92Zm8.75-1.87c0 .25.08.47.25.62.18.15.53.33 1.1.55.73.3 1.25.63 1.53.98.3.38.45.8.45 1.33 0 .72-.28 1.3-.85 1.75-.55.45-1.33.64-2.28.64a5.92 5.92 0 0 1-2.07-.42v-1.8c.32.22.7.43 1.07.55.38.13.73.2 1.05.2.4 0 .73-.05.9-.17.2-.13.3-.3.3-.58 0-.25-.1-.45-.3-.65-.2-.17-.6-.38-1.15-.6a3.44 3.44 0 0 1-1.42-.95c-.28-.35-.43-.8-.43-1.35 0-.7.28-1.28.83-1.73a3.3 3.3 0 0 1 2.15-.67c.27 0 .57.02.9.1.32.07.62.15.85.22V8.5c-.25-.15-.53-.3-.85-.43a2.65 2.65 0 0 0-.95-.17c-.35 0-.63.07-.8.2a.8.8 0 0 0-.28.6Zm4.1 1.95c0-1.28.38-2.3 1.08-3.05a3.98 3.98 0 0 1 3-1.13c1.2 0 2.15.35 2.82 1.08.68.72 1.03 1.7 1.03 2.92 0 1.25-.38 2.25-1.08 3a3.9 3.9 0 0 1-2.95 1.13c-1.2 0-2.15-.35-2.85-1.05a4.12 4.12 0 0 1-1.05-2.9Zm1.9-.08c0 .8.18 1.43.55 1.86a2 2 0 0 0 1.58.64c.65 0 1.17-.2 1.52-.64.35-.43.53-1.05.53-1.9 0-.83-.18-1.46-.53-1.9a1.88 1.88 0 0 0-1.5-.66c-.67 0-1.17.23-1.55.68-.4.47-.6 1.1-.6 1.92Zm12.1-2.42h-2.72v6.25h-1.85V8.15h-1.3v-1.5h1.3V5.57c0-.8.27-1.47.8-2 .52-.52 1.2-.77 2.02-.77l.6.02c.18 0 .33.05.45.1V4.5a3.06 3.06 0 0 0-.32-.13 1.66 1.66 0 0 0-.53-.07c-.37 0-.67.12-.87.35-.2.22-.3.6-.3 1.05v.92h2.72V4.87l1.83-.55v2.3H85v1.5h-1.85v3.63c0 .47.1.8.25 1 .17.2.45.3.82.3.1 0 .23-.03.38-.08.15-.04.27-.1.37-.17v1.5a4.33 4.33 0 0 1-1.38.25c-.77 0-1.34-.2-1.72-.6-.37-.4-.57-1.02-.57-1.85l.02-3.95ZM9.16 0H.6v8.55h8.55V0ZM18.6 0h-8.54v8.55h8.55V0ZM9.16 9.45H.6V18h8.55V9.45ZM18.6 9.45h-8.54V18h8.55V9.45Z"></path></g><defs><clipPath id="a"><path fill="#fff" d="M.6 0H85v18H.6z"></path></clipPath></defs></svg>