<svg xmlns="http://www.w3.org/2000/svg" fill="none" viewBox="0 0 171 48" height="48" width="171">
<path fill="black" d="M17.0544 4V14.748L7.47522 5.16066L6.52667 4.2113V5.55333V15.5556H2.55556H2V16.1111V31.1889V31.7444H2.55556H6.52778V41.81V43.152L7.47634 42.2027L17.0544 32.6165V44H18.1656V32.5677L27.7914 42.2027L28.74 43.1521V41.81V31.7444H32.7111H33.2667V31.1889V16.1111V15.5556H32.7111H28.74V8.44444V5.55333V4.2112L27.7914 5.16068L18.1656 14.7957V4H17.0544ZM7.63778 6.89536L16.2907 15.5556H7.63778V6.89536ZM3.11111 16.6667H6.52667V16.6689H7.08222H16.2908L6.69033 26.2784L6.69031 26.2785L6.52783 26.4411L6.52778 26.671V26.6711L6.5268 30.6333H3.11111V16.6667ZM7.63889 40.468V26.9011L17.0544 17.4776V31.0445L7.63889 40.468ZM18.19 31.02V17.4543L27.6288 26.901L27.6278 31.1888L27.6276 31.7444H27.6289V40.4679L18.19 31.02ZM28.74 26.6712V30.6333H32.1556V16.6667H28.74V16.6689H28.1844H18.977L28.5774 26.2784L28.5775 26.2785L28.74 26.4411V26.6711V26.6712ZM27.6289 8.44444V15.5556H18.977L27.6289 6.89546V8.44444ZM66.3898 15.6267C65.2021 16.2945 64.281 17.2434 63.6221 18.4756L63.6232 18.4745C62.9643 19.7078 62.6354 21.1578 62.6354 22.8289C62.6354 24.5001 62.9743 25.9512 63.6521 27.1845C64.3298 28.4178 65.2932 29.3678 66.5387 30.0334C67.7854 30.6989 69.2265 31.0323 70.8621 31.0323C73.0354 31.0323 74.7065 30.5012 75.8721 29.4367C77.0387 28.3734 77.811 27.1145 78.1898 25.6634H75.3476C75.0276 26.5989 74.5254 27.3289 73.8365 27.8556C73.1498 28.3823 72.1565 28.6456 70.861 28.6456C69.2643 28.6456 67.9932 28.1889 67.0465 27.2734C66.0998 26.3589 65.5765 25.1256 65.4765 23.5745H77.8887V21.7856C77.8887 20.4945 77.6143 19.3067 77.0665 18.2223C76.5187 17.1389 75.6909 16.2689 74.5843 15.6123C73.4787 14.9556 72.1576 14.6278 70.5621 14.6278C68.9665 14.6278 67.5754 14.9612 66.3898 15.6267ZM73.8521 18.1612C74.5498 18.9278 74.8987 19.9856 74.8987 21.3378H65.5065C65.7054 19.9467 66.2487 18.8767 67.1365 18.1312C68.0232 17.3856 69.1654 17.0134 70.561 17.0134C72.0576 17.0134 73.1543 17.3956 73.8521 18.1612ZM81.6176 17.5501V15.0745V15.0734H78.9232V30.5845H81.6154V21.7856C81.6154 20.3334 81.9443 19.2901 82.6032 18.6534C83.2621 18.0167 84.2587 17.6989 85.5954 17.6989H87.301V15.0156H85.9854C83.931 15.0156 82.6443 15.8312 82.1265 17.4612C82.0876 17.5801 82.0487 17.6589 82.0076 17.6989C81.9665 17.7389 81.9076 17.7589 81.8276 17.7589C81.6876 17.7589 81.6176 17.6901 81.6176 17.5501ZM100.357 30.1056C101.483 29.4901 102.401 28.5601 103.109 27.3178C103.817 26.0745 104.171 24.5778 104.171 22.8301C104.171 21.0823 103.817 19.5845 103.109 18.3423C102.4 17.0989 101.483 16.1689 100.357 15.5534C99.2298 14.9378 98.0176 14.6289 96.7221 14.6289C94.1698 14.6289 92.3743 15.6423 91.3376 17.6712C91.2576 17.8289 91.1587 17.9089 91.0387 17.9089C90.9187 17.9089 90.8587 17.8489 90.8587 17.7301V15.0756H88.1665V36.2501H90.8587V27.9289C90.8587 27.8101 90.9198 27.7501 91.0387 27.7501C91.1576 27.7501 91.2576 27.8301 91.3376 27.9878C92.3743 30.0167 94.1698 31.0301 96.7221 31.0301C98.0176 31.0301 99.2298 30.7212 100.357 30.1056ZM96.0943 17.0123C97.7087 17.0123 99.0098 17.5245 99.9976 18.5489C100.985 19.5734 101.479 21.0001 101.479 22.8289C101.479 24.6578 100.985 26.0845 99.9976 27.1089C99.0109 28.1345 97.7087 28.6456 96.0943 28.6456C94.4798 28.6456 93.1787 28.1334 92.1909 27.1089C91.2032 26.0856 90.841 24.6578 90.841 22.8289C90.841 21.0001 91.2032 19.5734 92.1909 18.5489C93.1776 17.5245 94.4798 17.0123 96.0943 17.0123ZM108.078 30.5834V9.11117H105.385V30.5834H108.078ZM110.295 18.4734C110.295 18.4738 110.294 18.4741 110.294 18.4745V18.4734H110.295ZM110.295 18.4734H110.295C109.637 19.7067 109.308 21.1567 109.308 22.8278C109.308 24.4989 109.647 25.9501 110.324 27.1834C111.002 28.4167 111.965 29.3667 113.211 30.0323C114.458 30.6978 115.899 31.0312 117.534 31.0312C119.708 31.0312 121.379 30.5001 122.544 29.4356C123.71 28.3723 124.483 27.1134 124.862 25.6623H122.02C121.7 26.5978 121.198 27.3278 120.509 27.8545C119.821 28.3812 118.829 28.6445 117.533 28.6445C115.937 28.6445 114.665 28.1878 113.719 27.2723C112.772 26.3578 112.249 25.1245 112.149 23.5734H124.561V21.7845C124.561 20.4934 124.288 19.3056 123.739 18.2212C123.191 17.1378 122.363 16.2678 121.257 15.6112C120.151 14.9545 118.828 14.6267 117.233 14.6267C115.639 14.6267 114.248 14.9601 113.062 15.6256C111.875 16.2932 110.953 17.2417 110.295 18.4734ZM120.524 18.1601C121.222 18.9267 121.571 19.9845 121.571 21.3367H112.179C112.379 19.9456 112.921 18.8756 113.809 18.1301C114.695 17.3845 115.839 17.0123 117.233 17.0123C118.73 17.0123 119.827 17.3945 120.524 18.1601ZM129.524 22.3801L123.363 29.9867H123.365V30.5834H126.387L131.291 24.3501L135.868 30.5834H138.769V29.9867L133.414 22.8289L139.217 15.7001V15.0734H136.197L131.65 20.8589L127.431 15.0734H124.47V15.6701L129.524 22.3801ZM143.125 13.3823V10.0256H139.981V13.3823H143.125ZM140.269 30.5845H142.962V15.0745H140.269V30.5845ZM143.813 15.0745H143.811V15.0734H143.813V15.0745ZM143.813 15.0745V17.3467H146.741V25.5123C146.741 27.2234 147.161 28.4945 147.998 29.3301C148.834 30.1667 150.111 30.5834 151.826 30.5834H153.92V28.1978H152.873C151.855 28.1978 151.102 28.2223 150.614 28.2723C150.125 28.3223 149.831 28.3467 149.732 28.3467C149.591 28.3467 149.482 28.3078 149.402 28.2278C149.322 28.1489 149.283 28.0401 149.283 27.9001C149.283 27.8012 149.308 27.5078 149.358 27.0201C149.408 26.5323 149.433 25.7812 149.433 24.7678V17.3478H153.272L152.515 15.0745H149.433V10.8989H146.74V15.0745H143.813ZM156.071 15.0745H153.327V15.0756H153.329L158.49 30.5845H160.314C160.433 30.5845 160.523 30.5945 160.583 30.6145C160.643 30.6334 160.692 30.6834 160.732 30.7634C160.811 30.8845 160.802 31.0634 160.702 31.3012L159.864 33.5678C159.743 33.8656 159.514 34.0145 159.175 34.0145C159.055 34.0145 158.775 33.9901 158.338 33.9401C157.899 33.8901 157.331 33.8656 156.633 33.8656H154.449V36.2512H157.32C158.997 36.2512 160.004 35.9678 160.872 35.4012C161.739 34.8345 162.411 33.8356 162.89 32.4034L168.465 15.6712V15.0745H165.905L161.449 28.0867C161.389 28.2456 161.294 28.4567 160.989 28.4567C160.683 28.4567 160.589 28.2467 160.528 28.0867L156.071 15.0745ZM58.1721 30.1312C59.2987 29.5156 60.2165 28.5856 60.9243 27.3434C61.6321 26.1012 61.9865 24.6045 61.9865 22.8556C61.9865 21.1067 61.6321 19.6089 60.9243 18.3667C60.2154 17.1245 59.2987 16.1945 58.1721 15.5789C57.0454 14.9634 55.8332 14.6545 54.5376 14.6545C51.9854 14.6545 50.1887 15.6678 49.1532 17.6967C49.0732 17.8545 48.9743 17.9345 48.8543 17.9345C48.7343 17.9345 48.6743 17.8745 48.6743 17.7556V15.1012H45.9821V36.2756H48.6743V27.9545C48.6743 27.8356 48.7354 27.7756 48.8543 27.7756C48.9732 27.7756 49.0732 27.8556 49.1532 28.0134C50.1898 30.0423 51.9854 31.0556 54.5376 31.0556C55.8332 31.0556 57.0454 30.7467 58.1721 30.1312ZM53.9099 17.0378C55.5243 17.0378 56.8254 17.5501 57.8132 18.5745C58.801 19.5989 59.2943 21.0256 59.2943 22.8545C59.2943 24.6834 58.801 26.1101 57.8132 27.1345C56.8265 28.1601 55.5243 28.6712 53.9099 28.6712C52.2954 28.6712 50.9943 28.1589 50.0065 27.1345C49.0187 26.1112 48.6565 24.6834 48.6565 22.8545C48.6565 21.0256 49.0187 19.5989 50.0065 18.5745C50.9932 17.5501 52.2954 17.0378 53.9099 17.0378Z" clip-rule="evenodd" fill-rule="evenodd"></path>
</svg>
