<svg xmlns="http://www.w3.org/2000/svg" width="146" height="18" fill="none"><path fill="#000" d="M12.02 9.58a1.6 1.6 0 1 0 1.6 1.6c0-.87-.73-1.6-1.6-1.6ZM7.22 4.8a1.6 1.6 0 1 0 1.6 1.6c0-.87-.72-1.6-1.6-1.6Zm0 9.6c-.87 0-1.6.73-1.6 1.6a1.6 1.6 0 1 0 1.6-1.6Zm0-4.8c-.87 0-1.6.72-1.6 1.59a1.6 1.6 0 1 0 1.6-1.6Zm-4.81 0a1.6 1.6 0 1 0 0 3.18 1.6 1.6 0 0 0 0-3.19Zm140.88 8h2.69V.22h-2.7v17.37Zm-29.52 0h2.66V4.79h-2.66v12.8ZM115.08 0c-.87 0-1.6.73-1.6 1.6a1.6 1.6 0 1 0 3.2 0c.02-.9-.7-1.6-1.6-1.6Zm23.2 12.77c0 2.04-1.16 3.3-3.02 3.3-1.5 0-2.33-.83-2.33-2.06 0-1.4.97-2.28 3.1-2.28h2.25v1.04ZM135.7 4.4c-2.1 0-3.58.73-4.7 1.7v2a5.2 5.2 0 0 1 4-1.81c2.03 0 3.31 1.11 3.31 3.41v.51h-2.41c-3.8 0-5.64 1.57-5.64 3.85 0 2.17 1.7 3.84 4.11 3.84 1.96 0 3.3-.99 3.94-2.42v2.08h2.67V9.6c-.03-3.29-1.94-5.2-5.28-5.2ZM88.35 9.58c.31-2.03 1.47-3.43 3.4-3.43 1.8 0 3 1.16 3.06 3.43h-6.46Zm3.48-5.18c-3.9 0-6.41 2.79-6.41 6.68 0 4.14 2.85 6.87 6.92 6.87 2.03 0 3.7-.7 4.74-1.72V14.6a5.86 5.86 0 0 1-4.02 1.47c-2.75 0-4.67-1.66-4.81-4.93h9.24v-.85c-.02-3.7-2.22-5.88-5.66-5.88Zm33.5 11.66c-2.85 0-4.4-2.12-4.4-4.9 0-2.86 1.67-4.82 4.33-4.82 1.43 0 2.62.53 3.66 1.79v-2a5.5 5.5 0 0 0-4.21-1.7c-3.9 0-6.63 2.95-6.63 6.8 0 3.82 2.76 6.77 6.6 6.77 1.63 0 3.1-.53 4.4-1.84V14.4a5.03 5.03 0 0 1-3.74 1.66Zm-20.3-.04c-2.12 0-3.52-1.9-3.52-4.77 0-2.93 1.42-4.91 3.63-4.91 2.25 0 3.6 1.96 3.6 4.79 0 2.88-1.5 4.89-3.7 4.89Zm3.66-8.83a4.45 4.45 0 0 0-4.18-2.79c-3.3 0-5.88 2.95-5.88 6.9 0 3.87 2.42 6.65 5.61 6.65 2.2 0 3.78-1.3 4.45-3.02v2.63h2.66V.2h-2.66v7ZM39.74 4.4c-2.1 0-3.5 1.16-4.2 2.93V4.8h-2.67v12.8h2.66v-7.04c0-2.4 1.19-3.92 3.3-3.92 1.9 0 2.7 1.14 2.7 3.53v7.43h2.66V9.6c0-3.29-1.76-5.2-4.45-5.2ZM24.8 16.2c-2.18 0-3.5-1.96-3.5-4.99 0-3.05 1.32-5 3.5-5 2.23 0 3.56 1.95 3.56 5 0 3.03-1.31 4.99-3.56 4.99Zm0-11.79c-3.68 0-6.39 2.95-6.39 6.8 0 3.85 2.69 6.78 6.39 6.78 3.75 0 6.43-2.93 6.43-6.78s-2.68-6.8-6.43-6.8Zm23.93 5.18c.34-2.03 1.47-3.43 3.43-3.43 1.77 0 2.98 1.16 3.03 3.43h-6.46ZM52.2 4.4c-3.9 0-6.39 2.79-6.39 6.68 0 4.14 2.83 6.87 6.9 6.87 2.03 0 3.7-.7 4.76-1.72V14.6a5.9 5.9 0 0 1-4.01 1.47c-2.78 0-4.7-1.66-4.82-4.93h9.22v-.85c-.02-3.7-2.22-5.88-5.66-5.88Zm27.65 0c-1.76 0-3.12 1.02-3.87 2.71a3.7 3.7 0 0 0-3.63-2.7c-1.71 0-2.92 1-3.55 2.65v-2.3H66.1v12.8h2.69V9.92c0-1.96.99-3.34 2.59-3.34 1.5 0 2.27 1.02 2.27 2.98v8h2.66V9.7c0-1.84 1-3.12 2.61-3.12 1.5 0 2.2 1.02 2.2 3.05v7.93h2.67V9.15c.02-2.96-1.53-4.75-3.95-4.75Z"></path></svg>