<svg xmlns="http://www.w3.org/2000/svg" width="92" height="18" fill="none"><g fill="#000" clip-path="url(#a)"><path d="m11.03 3.38-5.3 3.38 5.3 3.39-5.3 3.38-5.3-3.4 5.3-3.38-5.3-3.37L5.73 0l5.3 3.38ZM5.7 14.62l5.3-3.38 5.3 3.38L11 18l-5.3-3.38Zm5.33-4.5 5.3-3.37-5.3-3.37L16.3 0l5.3 3.38-5.3 3.38 5.3 3.39-5.3 3.38-5.27-3.4ZM25.77 3.38h4.28c2.74 0 5 1.58 5 5.2v.75c0 3.64-2.12 5.28-4.91 5.28h-4.37V3.38Zm2.4 2.04v7.14H30c1.55 0 2.6-1.01 2.6-3.27v-.6c0-2.25-1.1-3.27-2.68-3.27h-1.76Zm8.15.11h1.92l.3 2.11c.37-1.43 1.3-2.2 3-2.2h.59v2.42h-.99c-1.94 0-2.42.68-2.42 2.6v4.18h-2.37v-9.1h-.03Zm6.29 4.74V10c0-3.04 1.94-4.7 4.6-4.7 2.7 0 4.6 1.66 4.6 4.7v.26c0 2.99-1.85 4.6-4.6 4.6-2.94-.03-4.6-1.6-4.6-4.6Zm6.77-.03V10c0-1.7-.85-2.7-2.2-2.7-1.33 0-2.2.93-2.2 2.7v.23c0 1.63.84 2.57 2.2 2.57 1.35-.03 2.2-.94 2.2-2.57Zm3.67-4.7h1.97l.23 1.7a3.06 3.06 0 0 1 2.99-1.94c2.31 0 3.84 1.67 3.84 4.75v.25c0 3-1.7 4.57-3.84 4.57-1.44 0-2.42-.65-2.9-1.69v4.6h-2.32l.03-12.25Zm6.62 4.7v-.2c0-1.81-.93-2.7-2.17-2.7-1.33 0-2.2 1-2.2 2.7v.17c0 1.61.84 2.62 2.17 2.62 1.36-.02 2.2-.9 2.2-2.6Zm5.9 2.71-.2 1.67h-2.02V2.49h2.31v4.65c.51-1.19 1.53-1.84 2.96-1.84 2.18.03 3.79 1.53 3.79 4.55v.28c0 3.02-1.53 4.74-3.84 4.74-1.53-.03-2.52-.74-3-1.92Zm4.4-2.82V9.9c0-1.66-.9-2.6-2.17-2.6-1.3 0-2.2 1.05-2.2 2.63v.2c0 1.69.87 2.68 2.17 2.68 1.4 0 2.2-.87 2.2-2.68Zm3.45.14V10c0-3.04 1.95-4.7 4.6-4.7 2.7 0 4.6 1.66 4.6 4.7v.26c0 2.99-1.87 4.6-4.6 4.6-2.93-.03-4.6-1.6-4.6-4.6Zm6.8-.03V10c0-1.7-.86-2.7-2.2-2.7-1.33 0-2.21.93-2.21 2.7v.23c0 1.63.85 2.57 2.2 2.57 1.36-.03 2.2-.94 2.2-2.57Zm5.5-.34-3.2-4.37h2.74l1.84 2.73 1.86-2.73h2.7l-3.23 4.34 3.41 4.75h-2.68l-2.08-3.02-2.03 3.02h-2.8l3.47-4.72Z"></path></g><defs><clipPath id="a"><path fill="#fff" d="M.43 0h91.42v18H.43z"></path></clipPath></defs></svg>